<svg width="232" height="181" viewBox="0 0 232 181" fill="none" xmlns="http://www.w3.org/2000/svg">
<g clip-path="url(#clip0_481_6)">
<path d="M192.924 78.0587C192.924 78.0587 187.469 81.0932 189.039 84.5482C190.609 88.0032 212.904 85.1764 212.904 85.1764C212.904 85.1764 211.334 80.465 208.508 79.5228C205.682 78.5805 192.924 78.0587 192.924 78.0587Z" fill="#707A81"/>
<path d="M190.797 78.8678C191.894 78.155 193.112 77.651 194.392 77.3811C198.659 76.3465 203.127 76.4859 207.322 77.7845L207.245 77.722C209.032 78.6655 210.601 79.974 211.85 81.5628L190.797 78.8678Z" fill="#CCCCCC"/>
<path d="M214.952 93.7258C214.876 94.8534 214.801 95.9799 214.726 97.1054C214.622 99.4628 214.365 101.811 213.956 104.135C213.573 106.079 212.964 108.007 211.874 109.663C210.785 111.315 209.168 112.681 207.252 113.184C206.076 113.466 204.853 113.492 203.666 113.262C201.427 111.99 199.91 113.617 202.146 115.272C202.653 115.647 203.181 115.994 203.726 116.312L204.74 131.976L185.899 127.892L189.576 107.056C189.013 106.544 188.498 105.981 188.038 105.375C185.931 102.577 185.205 98.9303 185.343 95.4313C185.485 91.9292 186.417 88.5151 187.344 85.1386C187.58 84.2226 187.865 83.3199 188.198 82.4343C188.609 82.6039 189.027 82.7578 189.451 82.8866C192.161 83.7095 195.04 83.7755 197.873 83.7723C202.912 83.7692 207.946 83.5724 212.973 83.1818C214.129 85.0843 214.83 87.2273 215.024 89.4448C215.105 90.8716 215.081 92.3025 214.952 93.7258Z" fill="#CCCCCC"/>
<path d="M134.37 136.245L163.375 138.821L163.686 138.849V15.0543C163.583 14.982 163.479 14.9098 163.375 14.8375C157.33 10.6082 150.791 7.13379 143.903 4.49146L142.421 24.9386L142.286 26.8106L140.82 47.0882L140.367 53.326L134.423 135.523L134.37 136.245Z" fill="#E6E6E6"/>
<path d="M62.6396 12.7489C62.4323 12.8808 62.2251 13.0127 62.0178 13.1509V138.849L62.6396 138.793L91.331 136.246L91.2777 135.523L85.3334 53.326L84.8812 47.0882L83.4147 26.8107L83.2797 24.9387L81.7253 3.49585C75.0222 5.8199 68.6162 8.92566 62.6396 12.7489Z" fill="#E6E6E6"/>
<path d="M62.0178 13.1509C61.6002 13.4211 61.1825 13.6975 60.7712 13.977V140.564C60.7712 143.727 62.6458 146.378 65.1517 147.053C65.5611 147.164 65.9835 147.22 66.4077 147.22H159.607C160.03 147.22 160.452 147.164 160.86 147.053C161.792 146.795 162.636 146.289 163.303 145.59C164.576 144.229 165.272 142.427 165.244 140.564V16.1788C164.729 15.7987 164.211 15.4218 163.686 15.0543C163.583 14.9821 163.479 14.9098 163.375 14.8376V140.564C163.376 140.972 163.328 141.378 163.231 141.773C162.788 143.642 161.328 145.012 159.607 145.012H66.4077C64.329 145.012 62.6396 143.017 62.6396 140.564V12.7489C62.4323 12.8808 62.2251 13.0127 62.0178 13.1509Z" fill="#E6E6E6"/>
<path d="M164.309 24.9399H61.7046V26.8116H164.309V24.9399Z" fill="#E6E6E6"/>
<path d="M132.885 1.06479C132.263 0.910888 131.641 0.766406 131.013 0.631348V51.4541H132.885V1.06479Z" fill="#E6E6E6"/>
<path d="M95.0019 0C94.377 0.116213 93.7521 0.235563 93.1303 0.364339V51.454H95.0019V0Z" fill="#E6E6E6"/>
<path d="M41.588 143.944C41.5876 145.018 41.7933 146.082 42.1941 147.078C42.348 147.465 42.5317 147.839 42.7436 148.197C43.0173 148.663 43.3348 149.103 43.6919 149.509C44.4808 150.409 45.4525 151.129 46.542 151.623C47.6316 152.116 48.8139 152.371 50.0099 152.371H172.887C175.12 152.371 177.263 151.483 178.842 149.904C180.421 148.324 181.309 146.181 181.309 143.947C181.309 141.713 180.421 139.57 178.842 137.99C177.263 136.411 175.12 135.523 172.887 135.523H50.0099C47.7775 135.525 45.6371 136.413 44.0583 137.992C42.4795 139.57 41.5911 141.711 41.588 143.944Z" fill="#E6E6E6"/>
<path d="M61.7046 53.3268L163.686 53.3268V47.0879L61.7046 47.0879V53.3268Z" fill="#E6E6E6"/>
<path d="M117.061 48.6476H108.329C108.329 48.197 108.418 47.7508 108.59 47.3345C108.763 46.9181 109.015 46.5399 109.334 46.2212C109.652 45.9026 110.031 45.6499 110.447 45.4774C110.863 45.305 111.309 45.2162 111.76 45.2162H113.631C114.541 45.2162 115.413 45.5777 116.057 46.2212C116.7 46.8648 117.061 47.7375 117.061 48.6476Z" fill="#E6E6E6"/>
<path d="M-1.52588e-05 148.756C2.72791 151.989 5.67846 155.027 8.83006 157.848H223.17C226.322 155.027 229.272 151.989 232 148.756H-1.52588e-05Z" fill="#3F3D56"/>
<path d="M58.1429 118.349V150.562H80.7048V118.349C80.7052 118.117 80.6313 117.891 80.4939 117.705C80.3566 117.518 80.163 117.381 79.9417 117.312C79.8374 117.278 79.7282 117.261 79.6183 117.262H59.2325C59.0896 117.262 58.948 117.29 58.8159 117.344C58.6838 117.399 58.5637 117.479 58.4625 117.579C58.3613 117.68 58.281 117.8 58.2261 117.932C58.1713 118.064 58.143 118.206 58.1429 118.349ZM66.9478 129.417C66.9537 128.782 67.2101 128.175 67.6611 127.728C68.1121 127.281 68.7214 127.03 69.3563 127.03C69.9912 127.03 70.6005 127.281 71.0515 127.728C71.5026 128.175 71.7589 128.782 71.7648 129.417V133.155C71.7616 133.792 71.5064 134.401 71.055 134.85C70.6037 135.3 69.993 135.552 69.3563 135.552C68.7197 135.552 68.1089 135.3 67.6576 134.85C67.2063 134.401 66.9511 133.792 66.9478 133.155V129.417Z" fill="#2F2E41"/>
<path d="M58.0738 149.531V152.638C58.0743 152.799 58.1382 152.953 58.2517 153.067C58.3651 153.181 58.519 153.246 58.6798 153.247H80.1678C80.3289 153.246 80.483 153.182 80.5966 153.068C80.7102 152.953 80.7739 152.799 80.7739 152.638V149.531H58.0738Z" fill="#3F3D56"/>
<path d="M22.6498 69.8157V128.632C22.6504 129.381 22.9484 130.1 23.4782 130.63C24.0081 131.16 24.7266 131.458 25.476 131.459H112.615C113.364 131.458 114.083 131.16 114.613 130.63C115.143 130.1 115.44 129.381 115.441 128.632V69.8157C115.439 69.0668 115.141 68.3491 114.611 67.8199C114.081 67.2907 113.364 66.993 112.615 66.992H25.476C24.7273 66.993 24.0095 67.2907 23.4798 67.8199C22.95 68.3491 22.6516 69.0668 22.6498 69.8157Z" fill="#3F3D56"/>
<path d="M24.6941 70.5475V127.906C24.6948 128.307 24.8541 128.691 25.1372 128.974C25.4203 129.257 25.8041 129.416 26.2045 129.417H111.89C112.29 129.416 112.674 129.257 112.957 128.974C113.24 128.691 113.399 128.307 113.4 127.906V70.5475C113.4 70.1465 113.241 69.7619 112.958 69.4781C112.675 69.1943 112.29 69.0344 111.89 69.0336H26.2045C25.8036 69.0344 25.4195 69.1943 25.1363 69.4781C24.8532 69.762 24.6941 70.1465 24.6941 70.5475Z" fill="#707A81"/>
<path d="M42.1658 153.979C42.253 154.088 42.3639 154.176 42.4901 154.237C42.6162 154.297 42.7545 154.328 42.8943 154.328H93.8714C94.0108 154.327 94.1485 154.296 94.2743 154.236C94.4001 154.176 94.5109 154.089 94.5988 153.98C94.6866 153.872 94.7492 153.746 94.782 153.61C94.8148 153.474 94.8169 153.333 94.7883 153.197L93.997 149.437C93.9642 149.284 93.8936 149.141 93.7916 149.022C93.6896 148.903 93.5594 148.811 93.413 148.756C93.3069 148.714 93.194 148.693 93.0801 148.693H43.6825C43.5686 148.693 43.4557 148.714 43.3497 148.756C43.2032 148.811 43.073 148.903 42.971 149.022C42.869 149.141 42.7984 149.284 42.7656 149.437L41.9743 153.197C41.9461 153.333 41.9487 153.474 41.9818 153.609C42.015 153.745 42.0778 153.871 42.1658 153.979Z" fill="#2F2E41"/>
<path d="M91.3013 150.312H92.5647C92.6494 150.312 92.718 150.244 92.718 150.159V149.523C92.718 149.439 92.6494 149.37 92.5647 149.37H91.3013C91.2166 149.37 91.148 149.439 91.148 149.523V150.159C91.148 150.244 91.2166 150.312 91.3013 150.312Z" fill="#3F3D56"/>
<path d="M88.1611 150.312H89.4246C89.5093 150.312 89.5779 150.244 89.5779 150.159V149.523C89.5779 149.439 89.5093 149.37 89.4246 149.37H88.1611C88.0764 149.37 88.0078 149.439 88.0078 149.523V150.159C88.0078 150.244 88.0764 150.312 88.1611 150.312Z" fill="#3F3D56"/>
<path d="M85.021 150.312H86.2845C86.3691 150.312 86.4378 150.244 86.4378 150.159V149.523C86.4378 149.439 86.3691 149.37 86.2845 149.37H85.021C84.9363 149.37 84.8677 149.439 84.8677 149.523V150.159C84.8677 150.244 84.9363 150.312 85.021 150.312Z" fill="#3F3D56"/>
<path d="M81.8808 150.312H83.1443C83.229 150.312 83.2976 150.244 83.2976 150.159V149.523C83.2976 149.439 83.229 149.37 83.1443 149.37H81.8808C81.7962 149.37 81.7275 149.439 81.7275 149.523V150.159C81.7275 150.244 81.7962 150.312 81.8808 150.312Z" fill="#3F3D56"/>
<path d="M78.7407 150.312H80.0042C80.0888 150.312 80.1575 150.244 80.1575 150.159V149.523C80.1575 149.439 80.0888 149.37 80.0042 149.37H78.7407C78.656 149.37 78.5874 149.439 78.5874 149.523V150.159C78.5874 150.244 78.656 150.312 78.7407 150.312Z" fill="#3F3D56"/>
<path d="M75.6006 150.312H76.864C76.9487 150.312 77.0173 150.244 77.0173 150.159V149.523C77.0173 149.439 76.9487 149.37 76.864 149.37H75.6006C75.5159 149.37 75.4473 149.439 75.4473 149.523V150.159C75.4473 150.244 75.5159 150.312 75.6006 150.312Z" fill="#3F3D56"/>
<path d="M72.4604 150.312H73.7239C73.8085 150.312 73.8772 150.244 73.8772 150.159V149.523C73.8772 149.439 73.8085 149.37 73.7239 149.37H72.4604C72.3757 149.37 72.3071 149.439 72.3071 149.523V150.159C72.3071 150.244 72.3757 150.312 72.4604 150.312Z" fill="#3F3D56"/>
<path d="M69.3203 150.312H70.5837C70.6684 150.312 70.737 150.244 70.737 150.159V149.523C70.737 149.439 70.6684 149.37 70.5837 149.37H69.3203C69.2356 149.37 69.167 149.439 69.167 149.523V150.159C69.167 150.244 69.2356 150.312 69.3203 150.312Z" fill="#3F3D56"/>
<path d="M66.1801 150.312H67.4436C67.5283 150.312 67.5969 150.244 67.5969 150.159V149.523C67.5969 149.439 67.5283 149.37 67.4436 149.37H66.1801C66.0955 149.37 66.0268 149.439 66.0268 149.523V150.159C66.0268 150.244 66.0955 150.312 66.1801 150.312Z" fill="#3F3D56"/>
<path d="M63.04 150.312H64.3035C64.3881 150.312 64.4568 150.244 64.4568 150.159V149.523C64.4568 149.439 64.3881 149.37 64.3035 149.37H63.04C62.9553 149.37 62.8867 149.439 62.8867 149.523V150.159C62.8867 150.244 62.9553 150.312 63.04 150.312Z" fill="#3F3D56"/>
<path d="M59.8998 150.312H61.1633C61.248 150.312 61.3166 150.244 61.3166 150.159V149.523C61.3166 149.439 61.248 149.37 61.1633 149.37H59.8998C59.8152 149.37 59.7465 149.439 59.7465 149.523V150.159C59.7465 150.244 59.8152 150.312 59.8998 150.312Z" fill="#3F3D56"/>
<path d="M56.7597 150.312H58.0232C58.1078 150.312 58.1765 150.244 58.1765 150.159V149.523C58.1765 149.439 58.1078 149.37 58.0232 149.37H56.7597C56.675 149.37 56.6064 149.439 56.6064 149.523V150.159C56.6064 150.244 56.675 150.312 56.7597 150.312Z" fill="#3F3D56"/>
<path d="M53.6196 150.312H54.883C54.9677 150.312 55.0363 150.244 55.0363 150.159V149.523C55.0363 149.439 54.9677 149.37 54.883 149.37H53.6196C53.5349 149.37 53.4663 149.439 53.4663 149.523V150.159C53.4663 150.244 53.5349 150.312 53.6196 150.312Z" fill="#3F3D56"/>
<path d="M50.4794 150.312H51.7429C51.8275 150.312 51.8962 150.244 51.8962 150.159V149.523C51.8962 149.439 51.8275 149.37 51.7429 149.37H50.4794C50.3947 149.37 50.3261 149.439 50.3261 149.523V150.159C50.3261 150.244 50.3947 150.312 50.4794 150.312Z" fill="#3F3D56"/>
<path d="M47.3393 150.312H48.6027C48.6874 150.312 48.756 150.244 48.756 150.159V149.523C48.756 149.439 48.6874 149.37 48.6027 149.37H47.3393C47.2546 149.37 47.186 149.439 47.186 149.523V150.159C47.186 150.244 47.2546 150.312 47.3393 150.312Z" fill="#3F3D56"/>
<path d="M44.1991 150.312H45.4626C45.5473 150.312 45.6159 150.244 45.6159 150.159V149.523C45.6159 149.439 45.5473 149.37 45.4626 149.37H44.1991C44.1145 149.37 44.0458 149.439 44.0458 149.523V150.159C44.0458 150.244 44.1145 150.312 44.1991 150.312Z" fill="#3F3D56"/>
<path d="M91.3384 151.883H92.6018C92.6865 151.883 92.7551 151.814 92.7551 151.729V151.094C92.7551 151.009 92.6865 150.94 92.6018 150.94H91.3384C91.2537 150.94 91.1851 151.009 91.1851 151.094V151.729C91.1851 151.814 91.2537 151.883 91.3384 151.883Z" fill="#3F3D56"/>
<path d="M88.1982 151.883H89.4617C89.5464 151.883 89.615 151.814 89.615 151.729V151.094C89.615 151.009 89.5464 150.94 89.4617 150.94H88.1982C88.1135 150.94 88.0449 151.009 88.0449 151.094V151.729C88.0449 151.814 88.1135 151.883 88.1982 151.883Z" fill="#3F3D56"/>
<path d="M85.0581 151.883H86.3216C86.4062 151.883 86.4749 151.814 86.4749 151.729V151.094C86.4749 151.009 86.4062 150.94 86.3216 150.94H85.0581C84.9734 150.94 84.9048 151.009 84.9048 151.094V151.729C84.9048 151.814 84.9734 151.883 85.0581 151.883Z" fill="#3F3D56"/>
<path d="M81.9179 151.883H83.1814C83.2661 151.883 83.3347 151.814 83.3347 151.729V151.094C83.3347 151.009 83.2661 150.94 83.1814 150.94H81.9179C81.8333 150.94 81.7646 151.009 81.7646 151.094V151.729C81.7646 151.814 81.8333 151.883 81.9179 151.883Z" fill="#3F3D56"/>
<path d="M78.7778 151.883H80.0413C80.1259 151.883 80.1946 151.814 80.1946 151.729V151.094C80.1946 151.009 80.1259 150.94 80.0413 150.94H78.7778C78.6931 150.94 78.6245 151.009 78.6245 151.094V151.729C78.6245 151.814 78.6931 151.883 78.7778 151.883Z" fill="#3F3D56"/>
<path d="M75.6377 151.883H76.9011C76.9858 151.883 77.0544 151.814 77.0544 151.729V151.094C77.0544 151.009 76.9858 150.94 76.9011 150.94H75.6377C75.553 150.94 75.4844 151.009 75.4844 151.094V151.729C75.4844 151.814 75.553 151.883 75.6377 151.883Z" fill="#3F3D56"/>
<path d="M72.4975 151.883H73.761C73.8457 151.883 73.9143 151.814 73.9143 151.729V151.094C73.9143 151.009 73.8457 150.94 73.761 150.94H72.4975C72.4129 150.94 72.3442 151.009 72.3442 151.094V151.729C72.3442 151.814 72.4129 151.883 72.4975 151.883Z" fill="#3F3D56"/>
<path d="M69.3574 151.883H70.6209C70.7055 151.883 70.7742 151.814 70.7742 151.729V151.094C70.7742 151.009 70.7055 150.94 70.6209 150.94H69.3574C69.2727 150.94 69.2041 151.009 69.2041 151.094V151.729C69.2041 151.814 69.2727 151.883 69.3574 151.883Z" fill="#3F3D56"/>
<path d="M66.2172 151.883H67.4807C67.5654 151.883 67.634 151.814 67.634 151.729V151.094C67.634 151.009 67.5654 150.94 67.4807 150.94H66.2172C66.1326 150.94 66.0639 151.009 66.0639 151.094V151.729C66.0639 151.814 66.1326 151.883 66.2172 151.883Z" fill="#3F3D56"/>
<path d="M63.0771 151.883H64.3406C64.4252 151.883 64.4939 151.814 64.4939 151.729V151.094C64.4939 151.009 64.4252 150.94 64.3406 150.94H63.0771C62.9924 150.94 62.9238 151.009 62.9238 151.094V151.729C62.9238 151.814 62.9924 151.883 63.0771 151.883Z" fill="#3F3D56"/>
<path d="M59.937 151.883H61.2004C61.2851 151.883 61.3537 151.814 61.3537 151.729V151.094C61.3537 151.009 61.2851 150.94 61.2004 150.94H59.937C59.8523 150.94 59.7837 151.009 59.7837 151.094V151.729C59.7837 151.814 59.8523 151.883 59.937 151.883Z" fill="#3F3D56"/>
<path d="M56.7968 151.883H58.0603C58.1449 151.883 58.2136 151.814 58.2136 151.729V151.094C58.2136 151.009 58.1449 150.94 58.0603 150.94H56.7968C56.7121 150.94 56.6435 151.009 56.6435 151.094V151.729C56.6435 151.814 56.7121 151.883 56.7968 151.883Z" fill="#3F3D56"/>
<path d="M53.6567 151.883H54.9201C55.0048 151.883 55.0734 151.814 55.0734 151.729V151.094C55.0734 151.009 55.0048 150.94 54.9201 150.94H53.6567C53.572 150.94 53.5034 151.009 53.5034 151.094V151.729C53.5034 151.814 53.572 151.883 53.6567 151.883Z" fill="#3F3D56"/>
<path d="M50.5165 151.883H51.78C51.8647 151.883 51.9333 151.814 51.9333 151.729V151.094C51.9333 151.009 51.8647 150.94 51.78 150.94H50.5165C50.4319 150.94 50.3632 151.009 50.3632 151.094V151.729C50.3632 151.814 50.4319 151.883 50.5165 151.883Z" fill="#3F3D56"/>
<path d="M47.3764 151.883H48.6399C48.7245 151.883 48.7932 151.814 48.7932 151.729V151.094C48.7932 151.009 48.7245 150.94 48.6399 150.94H47.3764C47.2917 150.94 47.2231 151.009 47.2231 151.094V151.729C47.2231 151.814 47.2917 151.883 47.3764 151.883Z" fill="#3F3D56"/>
<path d="M44.2362 151.883H45.4997C45.5844 151.883 45.653 151.814 45.653 151.729V151.094C45.653 151.009 45.5844 150.94 45.4997 150.94H44.2362C44.1516 150.94 44.0829 151.009 44.0829 151.094V151.729C44.0829 151.814 44.1516 151.883 44.2362 151.883Z" fill="#3F3D56"/>
<path d="M65.2752 153.767H77.5292C77.6138 153.767 77.6825 153.699 77.6825 153.614V152.978C77.6825 152.894 77.6138 152.825 77.5292 152.825H65.2752C65.1905 152.825 65.1219 152.894 65.1219 152.978V153.614C65.1219 153.699 65.1905 153.767 65.2752 153.767Z" fill="#3F3D56"/>
<path d="M30.5102 76.9351H110.685C110.769 76.9332 110.848 76.8988 110.906 76.8392C110.965 76.7796 110.997 76.6995 110.997 76.6162C110.997 76.5328 110.965 76.4527 110.906 76.3931C110.848 76.3335 110.769 76.2991 110.685 76.2972H30.5102C30.4269 76.2991 30.3475 76.3335 30.2892 76.3931C30.2309 76.4527 30.1983 76.5328 30.1983 76.6162C30.1983 76.6995 30.2309 76.7796 30.2892 76.8392C30.3475 76.8988 30.4269 76.9332 30.5102 76.9351Z" fill="#3F3D56"/>
<path d="M105.228 74.6689C106.26 74.6689 107.096 73.8135 107.096 72.7583C107.096 71.7031 106.26 70.8477 105.228 70.8477C104.196 70.8477 103.359 71.7031 103.359 72.7583C103.359 73.8135 104.196 74.6689 105.228 74.6689Z" fill="#3F3D56"/>
<path d="M98.7729 74.6689C99.8048 74.6689 100.641 73.8135 100.641 72.7583C100.641 71.7031 99.8048 70.8477 98.7729 70.8477C97.7409 70.8477 96.9044 71.7031 96.9044 72.7583C96.9044 73.8135 97.7409 74.6689 98.7729 74.6689Z" fill="#3F3D56"/>
<path d="M92.318 74.6689C93.3499 74.6689 94.1865 73.8135 94.1865 72.7583C94.1865 71.7031 93.3499 70.8477 92.318 70.8477C91.286 70.8477 90.4495 71.7031 90.4495 72.7583C90.4495 73.8135 91.286 74.6689 92.318 74.6689Z" fill="#3F3D56"/>
<path d="M34.0548 71.6688C34.0546 71.714 34.0633 71.7588 34.0804 71.8006C34.0975 71.8424 34.1226 71.8804 34.1544 71.9125C34.1862 71.9446 34.224 71.9701 34.2656 71.9876C34.3073 72.005 34.352 72.0141 34.3971 72.0143H38.9817C39.0724 72.0122 39.1586 71.9747 39.2219 71.9099C39.2853 71.845 39.3207 71.7579 39.3207 71.6673C39.3207 71.5766 39.2853 71.4895 39.2219 71.4247C39.1586 71.3598 39.0724 71.3223 38.9817 71.3202H34.3971C34.3056 71.3213 34.2182 71.3586 34.1541 71.4239C34.09 71.4892 34.0543 71.5773 34.0548 71.6688Z" fill="#3F3D56"/>
<path d="M34.0548 72.9723C34.0546 73.0175 34.0633 73.0622 34.0804 73.104C34.0975 73.1459 34.1226 73.1839 34.1544 73.216C34.1862 73.2481 34.224 73.2736 34.2656 73.291C34.3073 73.3085 34.352 73.3176 34.3971 73.3178H38.9817C39.0724 73.3158 39.1587 73.2783 39.2222 73.2135C39.2856 73.1486 39.3211 73.0615 39.3211 72.9707C39.3211 72.88 39.2856 72.7929 39.2222 72.728C39.1587 72.6631 39.0724 72.6257 38.9817 72.6237H34.3971C34.3056 72.6248 34.2182 72.6621 34.1541 72.7274C34.09 72.7927 34.0543 72.8808 34.0548 72.9723Z" fill="#3F3D56"/>
<path d="M34.0548 74.2726C34.0543 74.3642 34.09 74.4522 34.1541 74.5175C34.2182 74.5829 34.3056 74.6202 34.3971 74.6213H38.9817C39.0724 74.6192 39.1586 74.5817 39.2219 74.5168C39.2853 74.4519 39.3207 74.3649 39.3207 74.2742C39.3207 74.1835 39.2853 74.0965 39.2219 74.0316C39.1586 73.9667 39.0724 73.9292 38.9817 73.9271H34.3971C34.352 73.9273 34.3073 73.9364 34.2656 73.9539C34.224 73.9714 34.1862 73.9969 34.1544 74.0289C34.1226 74.061 34.0975 74.0991 34.0804 74.1409C34.0633 74.1827 34.0546 74.2275 34.0548 74.2726Z" fill="#3F3D56"/>
<path d="M35.4717 84.3464H33.8243C33.3249 84.3464 32.92 84.7514 32.92 85.251C32.92 85.7506 33.3249 86.1556 33.8243 86.1556H35.4717C35.9712 86.1556 36.3761 85.7506 36.3761 85.251C36.3761 84.7514 35.9712 84.3464 35.4717 84.3464Z" fill="#E6E6E6"/>
<path d="M54.3126 84.3464H52.6652C52.1657 84.3464 51.7608 84.7514 51.7608 85.251C51.7608 85.7506 52.1657 86.1556 52.6652 86.1556H54.3126C54.812 86.1556 55.2169 85.7506 55.2169 85.251C55.2169 84.7514 54.812 84.3464 54.3126 84.3464Z" fill="#E6E6E6"/>
<path d="M59.6508 84.3464H58.0034C57.504 84.3464 57.0991 84.7514 57.0991 85.251C57.0991 85.7506 57.504 86.1556 58.0034 86.1556H59.6508C60.1503 86.1556 60.5551 85.7506 60.5551 85.251C60.5551 84.7514 60.1503 84.3464 59.6508 84.3464Z" fill="#E6E6E6"/>
<path d="M49.1878 84.1957H38.9491C38.4496 84.1957 38.0448 84.6007 38.0448 85.1002C38.0448 85.5998 38.4496 86.0048 38.9491 86.0048H49.1878C49.6872 86.0048 50.0921 85.5998 50.0921 85.1002C50.0921 84.6007 49.6872 84.1957 49.1878 84.1957Z" fill="#E6E6E6"/>
<path d="M74.3089 84.1957H64.0702C63.5708 84.1957 63.1659 84.6007 63.1659 85.1002C63.1659 85.5998 63.5708 86.0048 64.0702 86.0048H74.3089C74.8084 86.0048 75.2133 85.5998 75.2133 85.1002C75.2133 84.6007 74.8084 84.1957 74.3089 84.1957Z" fill="#E6E6E6"/>
<path d="M40.4959 88.4296H38.8486C38.3491 88.4296 37.9442 88.8346 37.9442 89.3342C37.9442 89.8338 38.3491 90.2388 38.8486 90.2388H40.4959C40.9954 90.2388 41.4003 89.8338 41.4003 89.3342C41.4003 88.8346 40.9954 88.4296 40.4959 88.4296Z" fill="#E6E6E6"/>
<path d="M59.3368 88.4296H57.6894C57.19 88.4296 56.7851 88.8346 56.7851 89.3342C56.7851 89.8338 57.19 90.2388 57.6894 90.2388H59.3368C59.8362 90.2388 60.2411 89.8338 60.2411 89.3342C60.2411 88.8346 59.8362 88.4296 59.3368 88.4296Z" fill="#E6E6E6"/>
<path d="M64.675 88.4296H63.0277C62.5282 88.4296 62.1233 88.8346 62.1233 89.3342C62.1233 89.8338 62.5282 90.2388 63.0277 90.2388H64.675C65.1745 90.2388 65.5794 89.8338 65.5794 89.3342C65.5794 88.8346 65.1745 88.4296 64.675 88.4296Z" fill="#E6E6E6"/>
<path d="M54.212 88.2788H43.9733C43.4739 88.2788 43.069 88.6838 43.069 89.1834C43.069 89.683 43.4739 90.0879 43.9733 90.0879H54.212C54.7115 90.0879 55.1164 89.683 55.1164 89.1834C55.1164 88.6838 54.7115 88.2788 54.212 88.2788Z" fill="#E6E6E6"/>
<path d="M79.3332 88.2788H69.0945C68.595 88.2788 68.1901 88.6838 68.1901 89.1834C68.1901 89.683 68.595 90.0879 69.0945 90.0879H79.3332C79.8326 90.0879 80.2375 89.683 80.2375 89.1834C80.2375 88.6838 79.8326 88.2788 79.3332 88.2788Z" fill="#E6E6E6"/>
<path d="M45.5202 92.5128H43.8728C43.3733 92.5128 42.9684 92.9177 42.9684 93.4173C42.9684 93.9169 43.3733 94.3219 43.8728 94.3219H45.5202C46.0196 94.3219 46.4245 93.9169 46.4245 93.4173C46.4245 92.9177 46.0196 92.5128 45.5202 92.5128Z" fill="#E6E6E6"/>
<path d="M64.361 92.5128H62.7136C62.2142 92.5128 61.8093 92.9177 61.8093 93.4173C61.8093 93.9169 62.2142 94.3219 62.7136 94.3219H64.361C64.8605 94.3219 65.2654 93.9169 65.2654 93.4173C65.2654 92.9177 64.8605 92.5128 64.361 92.5128Z" fill="#E6E6E6"/>
<path d="M69.6993 92.5128H68.0519C67.5524 92.5128 67.1475 92.9177 67.1475 93.4173C67.1475 93.9169 67.5524 94.3219 68.0519 94.3219H69.6993C70.1987 94.3219 70.6036 93.9169 70.6036 93.4173C70.6036 92.9177 70.1987 92.5128 69.6993 92.5128Z" fill="#E6E6E6"/>
<path d="M59.2362 92.3619H48.9976C48.4981 92.3619 48.0932 92.7669 48.0932 93.2665C48.0932 93.7661 48.4981 94.1711 48.9976 94.1711H59.2362C59.7357 94.1711 60.1406 93.7661 60.1406 93.2665C60.1406 92.7669 59.7357 92.3619 59.2362 92.3619Z" fill="#E6E6E6"/>
<path d="M84.3574 92.3619H74.1187C73.6193 92.3619 73.2144 92.7669 73.2144 93.2665C73.2144 93.7661 73.6193 94.1711 74.1187 94.1711H84.3574C84.8568 94.1711 85.2617 93.7661 85.2617 93.2665C85.2617 92.7669 84.8568 92.3619 84.3574 92.3619Z" fill="#E6E6E6"/>
<path d="M50.5444 96.5959H48.897C48.3976 96.5959 47.9927 97.0009 47.9927 97.5005C47.9927 98.0001 48.3976 98.4051 48.897 98.4051H50.5444C51.0439 98.4051 51.4487 98.0001 51.4487 97.5005C51.4487 97.0009 51.0439 96.5959 50.5444 96.5959Z" fill="#E6E6E6"/>
<path d="M69.3853 96.5959H67.7379C67.2384 96.5959 66.8335 97.0009 66.8335 97.5005C66.8335 98.0001 67.2384 98.4051 67.7379 98.4051H69.3853C69.8847 98.4051 70.2896 98.0001 70.2896 97.5005C70.2896 97.0009 69.8847 96.5959 69.3853 96.5959Z" fill="#E6E6E6"/>
<path d="M74.7235 96.5959H73.0761C72.5767 96.5959 72.1718 97.0009 72.1718 97.5005C72.1718 98.0001 72.5767 98.4051 73.0761 98.4051H74.7235C75.223 98.4051 75.6278 98.0001 75.6278 97.5005C75.6278 97.0009 75.223 96.5959 74.7235 96.5959Z" fill="#E6E6E6"/>
<path d="M64.2605 96.4451H54.0218C53.5223 96.4451 53.1174 96.8501 53.1174 97.3497C53.1174 97.8493 53.5223 98.2543 54.0218 98.2543H64.2605C64.7599 98.2543 65.1648 97.8493 65.1648 97.3497C65.1648 96.8501 64.7599 96.4451 64.2605 96.4451Z" fill="#E6E6E6"/>
<path d="M54.3126 112.832H52.6652C52.1657 112.832 51.7608 113.237 51.7608 113.737C51.7608 114.236 52.1657 114.641 52.6652 114.641H54.3126C54.812 114.641 55.2169 114.236 55.2169 113.737C55.2169 113.237 54.812 112.832 54.3126 112.832Z" fill="#E6E6E6"/>
<path d="M59.6508 112.832H58.0034C57.504 112.832 57.0991 113.237 57.0991 113.737C57.0991 114.236 57.504 114.641 58.0034 114.641H59.6508C60.1503 114.641 60.5551 114.236 60.5551 113.737C60.5551 113.237 60.1503 112.832 59.6508 112.832Z" fill="#E6E6E6"/>
<path d="M74.3089 112.983H64.0702C63.5708 112.983 63.1659 113.388 63.1659 113.888C63.1659 114.387 63.5708 114.792 64.0702 114.792H74.3089C74.8084 114.792 75.2133 114.387 75.2133 113.888C75.2133 113.388 74.8084 112.983 74.3089 112.983Z" fill="#E6E6E6"/>
<path d="M35.4717 112.832H33.8243C33.3249 112.832 32.92 113.237 32.92 113.737C32.92 114.236 33.3249 114.641 33.8243 114.641H35.4717C35.9712 114.641 36.3761 114.236 36.3761 113.737C36.3761 113.237 35.9712 112.832 35.4717 112.832Z" fill="#E6E6E6"/>
<path d="M49.1878 112.983H38.9491C38.4496 112.983 38.0448 113.388 38.0448 113.888C38.0448 114.387 38.4496 114.792 38.9491 114.792H49.1878C49.6872 114.792 50.0921 114.387 50.0921 113.888C50.0921 113.388 49.6872 112.983 49.1878 112.983Z" fill="#E6E6E6"/>
<path d="M40.4959 108.749H38.8486C38.3491 108.749 37.9442 109.154 37.9442 109.654C37.9442 110.153 38.3491 110.558 38.8486 110.558H40.4959C40.9954 110.558 41.4003 110.153 41.4003 109.654C41.4003 109.154 40.9954 108.749 40.4959 108.749Z" fill="#E6E6E6"/>
<path d="M59.3368 108.749H57.6894C57.19 108.749 56.7851 109.154 56.7851 109.654C56.7851 110.153 57.19 110.558 57.6894 110.558H59.3368C59.8362 110.558 60.2411 110.153 60.2411 109.654C60.2411 109.154 59.8362 108.749 59.3368 108.749Z" fill="#E6E6E6"/>
<path d="M64.675 108.749H63.0277C62.5282 108.749 62.1233 109.154 62.1233 109.654C62.1233 110.153 62.5282 110.558 63.0277 110.558H64.675C65.1745 110.558 65.5794 110.153 65.5794 109.654C65.5794 109.154 65.1745 108.749 64.675 108.749Z" fill="#E6E6E6"/>
<path d="M54.212 108.9H43.9733C43.4739 108.9 43.069 109.305 43.069 109.805C43.069 110.304 43.4739 110.709 43.9733 110.709H54.212C54.7115 110.709 55.1164 110.304 55.1164 109.805C55.1164 109.305 54.7115 108.9 54.212 108.9Z" fill="#E6E6E6"/>
<path d="M45.5202 104.666H43.8728C43.3733 104.666 42.9684 105.071 42.9684 105.571C42.9684 106.07 43.3733 106.475 43.8728 106.475H45.5202C46.0196 106.475 46.4245 106.07 46.4245 105.571C46.4245 105.071 46.0196 104.666 45.5202 104.666Z" fill="#E6E6E6"/>
<path d="M64.361 104.666H62.7136C62.2142 104.666 61.8093 105.071 61.8093 105.571C61.8093 106.07 62.2142 106.475 62.7136 106.475H64.361C64.8605 106.475 65.2654 106.07 65.2654 105.571C65.2654 105.071 64.8605 104.666 64.361 104.666Z" fill="#E6E6E6"/>
<path d="M69.6993 104.666H68.0519C67.5524 104.666 67.1475 105.071 67.1475 105.571C67.1475 106.07 67.5524 106.475 68.0519 106.475H69.6993C70.1987 106.475 70.6036 106.07 70.6036 105.571C70.6036 105.071 70.1987 104.666 69.6993 104.666Z" fill="#E6E6E6"/>
<path d="M59.2362 104.817H48.9976C48.4981 104.817 48.0932 105.222 48.0932 105.721C48.0932 106.221 48.4981 106.626 48.9976 106.626H59.2362C59.7357 106.626 60.1406 106.221 60.1406 105.721C60.1406 105.222 59.7357 104.817 59.2362 104.817Z" fill="#E6E6E6"/>
<path d="M50.5444 100.583H48.897C48.3976 100.583 47.9927 100.988 47.9927 101.487C47.9927 101.987 48.3976 102.392 48.897 102.392H50.5444C51.0439 102.392 51.4487 101.987 51.4487 101.487C51.4487 100.988 51.0439 100.583 50.5444 100.583Z" fill="#E6E6E6"/>
<path d="M69.3853 100.583H67.7379C67.2384 100.583 66.8335 100.988 66.8335 101.487C66.8335 101.987 67.2384 102.392 67.7379 102.392H69.3853C69.8847 102.392 70.2896 101.987 70.2896 101.487C70.2896 100.988 69.8847 100.583 69.3853 100.583Z" fill="#E6E6E6"/>
<path d="M74.7235 100.583H73.0761C72.5767 100.583 72.1718 100.988 72.1718 101.487C72.1718 101.987 72.5767 102.392 73.0761 102.392H74.7235C75.223 102.392 75.6278 101.987 75.6278 101.487C75.6278 100.988 75.223 100.583 74.7235 100.583Z" fill="#E6E6E6"/>
<path d="M64.2605 100.734H54.0218C53.5223 100.734 53.1174 101.139 53.1174 101.638C53.1174 102.138 53.5223 102.543 54.0218 102.543H64.2605C64.7599 102.543 65.1648 102.138 65.1648 101.638C65.1648 101.139 64.7599 100.734 64.2605 100.734Z" fill="#E6E6E6"/>
<path d="M29.5487 171.819C29.7403 171.917 29.935 172.014 30.1265 172.108C35.0879 174.589 39.0571 176 44.4864 177.545C44.9449 172.425 45.3876 163.427 45.8178 157.848C45.9309 156.401 46.0439 155.185 46.1538 154.328C46.1815 153.872 46.2746 153.422 46.4301 152.993L46.4113 154.328L46.3642 157.848L46.091 177.985C52.8447 179.772 59.7823 180.772 66.7657 180.965C67.13 180.975 67.4879 180.981 67.8333 180.987C67.9558 180.991 68.0751 180.994 68.1945 180.994C68.587 180.997 68.9764 181 69.3689 181C76.7281 181.005 84.0607 180.116 91.2054 178.352C91.0516 173.286 90.8977 164.388 90.7501 157.848C90.7187 156.57 90.6904 155.38 90.659 154.328C90.5994 152.079 90.5366 150.458 90.4769 149.915C90.5298 150.011 90.5709 150.113 90.5994 150.219C90.8902 151.574 91.0885 152.946 91.1929 154.328C91.3028 155.38 91.4127 156.57 91.5226 157.848C92.1067 164.642 92.7158 173.88 93.3439 177.796C97.082 176.775 100.75 175.513 104.325 174.018C106.209 173.233 108.06 172.386 109.877 171.477C109.531 169.215 109.17 166.681 108.8 164.052C108.511 162.013 108.212 159.918 107.908 157.848C107.437 154.651 100.437 132.307 99.9947 131.459C99.6147 130.733 99.2536 130.048 98.9114 129.417C98.0824 127.884 97.379 126.663 96.8577 125.89C94.6784 122.583 91.4341 120.122 87.6634 118.914L87.5692 118.889L87.5032 118.917L81.0816 116.945L80.1427 116.656L79.5116 116.461L77.2883 114.768L76.0794 113.848L74.9458 112.984L72.7288 111.297L59.0033 112.142L56.331 118.578L50.3459 120.767L50.2423 120.72L50.1512 120.682L50.057 120.707C46.2869 121.916 43.0429 124.378 40.8627 127.683C40.5675 128.126 40.2096 128.71 39.8045 129.417C39.4591 130.017 39.0822 130.702 38.674 131.459C38.0931 132.536 37.4588 133.752 36.7868 135.068C36.6392 135.357 36.4885 135.652 36.3378 135.95C36.0583 136.503 35.7746 137.067 35.4868 137.643C34.8179 138.978 34.1271 140.373 33.4363 141.789C32.8365 143.017 32.2305 145.542 31.6338 148.756C31.1408 151.425 30.651 154.573 30.1768 157.848C29.555 162.095 30.2176 167.18 29.6555 171.087C29.621 171.335 29.5833 171.577 29.5487 171.819Z" fill="#3F3D56"/>
<path opacity="0.2" d="M95.3316 148.742L92.6634 138.442L90.3074 147.33L95.3316 148.742Z" fill="black"/>
<path d="M24.3298 142.031C25.2844 155.185 24.2953 160.977 29.5644 171.822C34.3586 174.169 39.3524 176.085 44.4864 177.545C45.0202 177.696 45.5551 177.842 46.091 177.985C52.8447 179.772 59.7823 180.772 66.7657 180.965C67.13 180.975 67.4879 180.981 67.8333 180.987C67.9558 180.991 68.0751 180.994 68.1945 180.994C68.587 180.997 68.9764 181 69.3689 181C76.7281 181.005 84.0607 180.116 91.2054 178.352C91.9214 178.176 92.6342 177.991 93.3439 177.796C97.082 176.775 100.75 175.513 104.325 174.018C106.209 173.233 108.06 172.386 109.877 171.477C110.288 171.269 110.699 171.062 111.105 170.849C113.186 167.186 114.37 162.733 114.395 157.38C112.954 148.159 27.5139 134.078 24.3298 142.031Z" fill="#2F2E41"/>
<path opacity="0.2" d="M24.3323 144.284C24.2835 143.469 24.229 142.628 24.1655 141.752C27.3496 133.799 112.79 147.88 114.231 157.102C114.227 157.947 114.191 158.768 114.13 159.569C110.64 150.467 29.4704 137.084 24.3323 144.284Z" fill="black"/>
<path d="M4.97063 148.622C5.10898 149.025 5.37141 149.374 5.72025 149.618C6.06909 149.863 6.48639 149.99 6.91222 149.983L15.231 149.769C15.66 149.76 16.0747 149.613 16.4132 149.35C16.7517 149.086 16.9959 148.72 17.1091 148.306L18.2863 135.715C18.704 135.904 19.1586 135.998 19.6171 135.988C20.4211 135.968 21.1839 135.628 21.738 135.045C22.292 134.462 22.5919 133.683 22.5718 132.879C22.5516 132.075 22.213 131.311 21.6304 130.757C21.0477 130.202 20.2688 129.902 19.4648 129.921C19.2816 129.921 19.0988 129.94 18.9196 129.978C18.7247 129.767 18.4879 129.599 18.2243 129.486C17.9607 129.372 17.6762 129.315 17.3891 129.317L4.59285 129.648C4.4867 129.652 4.38109 129.665 4.27721 129.687C3.99658 129.74 3.73042 129.851 3.49664 130.015C3.26286 130.179 3.06688 130.391 2.92189 130.637C2.7769 130.883 2.68627 131.157 2.6561 131.441C2.62592 131.725 2.6569 132.012 2.74696 132.283L4.97063 148.622ZM18.5277 134.86L19.3654 131.86C19.4607 131.513 19.4629 131.147 19.3718 130.8C19.4124 130.8 19.4483 130.78 19.4889 130.78C20.0633 130.768 20.6189 130.985 21.034 131.382C21.4491 131.779 21.6897 132.325 21.7032 132.899C21.7166 133.474 21.5018 134.03 21.1058 134.447C20.7097 134.863 20.1648 135.105 19.5905 135.12C19.2192 135.132 18.8518 135.042 18.5277 134.86Z" fill="#2F2E41"/>
<path d="M4.27721 129.687C4.54983 131.246 7.61489 132.342 11.3004 132.152C14.6895 131.996 17.4606 130.805 17.9682 129.395C17.7804 129.339 17.585 129.313 17.3891 129.317L4.59285 129.648C4.4867 129.652 4.38109 129.665 4.27721 129.687Z" fill="#3F3D56"/>
<path d="M11.9759 141.704C11.9927 141.699 12.0087 141.692 12.0233 141.683L13.8298 140.5C13.8517 140.486 13.8696 140.466 13.882 140.443C13.8945 140.42 13.901 140.395 13.901 140.369C13.901 140.343 13.8945 140.317 13.8821 140.294C13.8697 140.271 13.8518 140.252 13.8299 140.237L11.9522 139.007C11.935 138.996 11.9156 138.988 11.8954 138.984C11.8751 138.98 11.8542 138.98 11.834 138.984C11.8137 138.988 11.7945 138.997 11.7774 139.008C11.7603 139.02 11.7457 139.035 11.7344 139.052C11.723 139.069 11.7152 139.089 11.7114 139.109C11.7076 139.129 11.7078 139.15 11.712 139.17C11.7163 139.191 11.7245 139.21 11.7362 139.227C11.7479 139.244 11.7628 139.258 11.7801 139.27L13.4573 140.368L11.8514 141.42C11.8203 141.44 11.7974 141.471 11.7868 141.507C11.7762 141.542 11.7786 141.58 11.7936 141.614C11.8085 141.649 11.835 141.676 11.8684 141.692C11.9018 141.709 11.9399 141.713 11.9759 141.704Z" fill="#707A81"/>
<path d="M9.12248 141.835C9.1528 141.828 9.18013 141.811 9.20098 141.788C9.22183 141.764 9.23524 141.735 9.2395 141.704C9.24375 141.673 9.23865 141.642 9.22485 141.614C9.21106 141.586 9.1892 141.562 9.16207 141.547L7.49684 140.592L9.10635 139.396C9.12289 139.384 9.13684 139.368 9.14741 139.351C9.15799 139.333 9.16498 139.313 9.16799 139.293C9.17099 139.273 9.16996 139.252 9.16493 139.232C9.15991 139.212 9.15099 139.193 9.1387 139.176C9.12641 139.16 9.11099 139.146 9.09331 139.135C9.07563 139.125 9.05603 139.118 9.03565 139.115C9.01526 139.112 8.99449 139.113 8.97451 139.118C8.95453 139.123 8.93573 139.132 8.9192 139.144L7.11718 140.483C7.09624 140.498 7.0795 140.519 7.06847 140.543C7.05744 140.566 7.05247 140.592 7.054 140.618C7.05553 140.644 7.06352 140.669 7.07725 140.692C7.09098 140.714 7.11001 140.732 7.13263 140.745L9.00581 141.819C9.04114 141.839 9.08298 141.845 9.12248 141.835Z" fill="#707A81"/>
<path d="M11.7962 142.74C11.8114 142.736 11.8259 142.73 11.8392 142.722C11.8568 142.711 11.8722 142.697 11.8844 142.68C11.8965 142.664 11.9053 142.645 11.9102 142.625C11.9151 142.605 11.916 142.584 11.9128 142.564C11.9097 142.543 11.9025 142.524 11.8918 142.506L9.33085 138.295C9.30907 138.259 9.27418 138.234 9.23379 138.224C9.1934 138.215 9.15081 138.221 9.11533 138.243C9.07986 138.264 9.05439 138.299 9.0445 138.34C9.03461 138.38 9.0411 138.423 9.06255 138.458L11.6235 142.67C11.641 142.698 11.6672 142.721 11.6982 142.733C11.7293 142.746 11.7636 142.748 11.7962 142.74Z" fill="#707A81"/>
<path d="M210.706 125.066H182.759V149.565H210.706V125.066Z" fill="#3F3D56"/>
<path d="M214.849 90.8456C214.33 93.917 214.785 97.0736 216.15 99.8734C216.655 100.903 217.281 102.144 216.666 103.112C216.493 103.354 216.269 103.554 216.009 103.698C215.749 103.842 215.46 103.927 215.163 103.945C214.57 103.976 213.976 103.899 213.41 103.718" fill="#CCCCCC"/>
<path d="M190.295 81.4073C190.816 81.4073 191.237 81.0557 191.237 80.6221C191.237 80.1884 190.816 79.8369 190.295 79.8369C189.775 79.8369 189.353 80.1884 189.353 80.6221C189.353 81.0557 189.775 81.4073 190.295 81.4073Z" fill="#3F3D56"/>
<path d="M193.749 81.7214C194.27 81.7214 194.692 81.3698 194.692 80.9362C194.692 80.5025 194.27 80.1509 193.749 80.1509C193.229 80.1509 192.807 80.5025 192.807 80.9362C192.807 81.3698 193.229 81.7214 193.749 81.7214Z" fill="#3F3D56"/>
<path d="M197.204 83.2918C197.724 83.2918 198.146 82.9403 198.146 82.5066C198.146 82.0729 197.724 81.7214 197.204 81.7214C196.683 81.7214 196.262 82.0729 196.262 82.5066C196.262 82.9403 196.683 83.2918 197.204 83.2918Z" fill="#3F3D56"/>
<path d="M201.286 82.3496C201.806 82.3496 202.228 81.998 202.228 81.5643C202.228 81.1307 201.806 80.7791 201.286 80.7791C200.766 80.7791 200.344 81.1307 200.344 81.5643C200.344 81.998 200.766 82.3496 201.286 82.3496Z" fill="#3F3D56"/>
<path d="M115.537 97.2321C120.112 95.9616 125.208 97.3232 128.743 100.442C130.651 102.136 132.051 104.327 132.788 106.77C133.69 109.678 133.84 112.746 133.934 115.769C134.039 119.111 134.129 122.454 134.227 125.797C134.32 128.984 134.33 132.186 134.543 135.368C134.721 138.038 135.149 140.809 136.577 143.125C137.902 145.272 139.994 146.722 142.359 147.521C144.756 148.331 147.339 148.519 149.854 148.503C152.78 148.493 155.701 148.262 158.592 147.811C164.083 146.931 169.507 144.686 172.861 140.056C174.405 137.954 175.273 135.431 175.348 132.823C175.419 129.784 174.449 126.841 173.385 124.034C172.351 121.303 171.232 118.612 170.577 115.756C169.969 113.084 169.679 110.349 169.713 107.608C169.769 102.125 171.083 96.7281 173.554 91.8331C174.804 89.319 176.39 86.9864 178.268 84.8996C180.205 82.7914 182.604 81.0511 185.456 80.4805C186.848 80.1921 188.289 80.2501 189.653 80.6494C190.235 80.8237 190.484 79.9146 189.904 79.7408C187.078 78.8945 184.009 79.538 181.504 81.0067C179.04 82.4509 177.094 84.6174 175.442 86.9146C172.268 91.4183 170.155 96.5826 169.261 102.02C168.368 107.457 168.717 113.026 170.283 118.309C171.959 123.803 175.606 129.52 174.039 135.465C172.668 140.669 167.919 144.205 163.012 145.802C160.035 146.771 156.915 147.181 153.802 147.393C151.171 147.573 148.504 147.687 145.881 147.348C143.472 147.038 140.994 146.301 139.126 144.683C137.078 142.91 136.142 140.362 135.735 137.747C135.274 134.789 135.342 131.738 135.255 128.753L134.958 118.563C134.79 112.807 134.935 106.429 131.191 101.66C129.695 99.8021 127.794 98.3098 125.634 97.2969C123.474 96.2841 121.111 95.7773 118.726 95.8152C117.563 95.8419 116.407 96.0127 115.286 96.3235C115.169 96.36 115.072 96.4404 115.013 96.5477C114.955 96.6551 114.94 96.7809 114.973 96.8987C115.005 97.0166 115.082 97.1172 115.187 97.1794C115.292 97.2416 115.418 97.2605 115.537 97.2321Z" fill="#3F3D56"/>
<path d="M48.6617 91.271C49.3285 96.017 51.8517 100.304 55.6769 103.19C59.502 106.076 64.3162 107.326 69.0617 106.663C73.8072 106.001 78.0957 103.482 80.9851 99.6585C83.8744 95.8353 85.1282 91.0213 84.4709 86.274L84.4351 86.0174C83.6705 81.3342 81.0959 77.1393 77.2669 74.3377C73.4378 71.536 68.6612 70.3522 63.9673 71.0415C59.2735 71.7308 55.0387 74.2381 52.1764 78.0224C49.3141 81.8067 48.0537 86.5648 48.6672 91.2703L48.6617 91.271Z" fill="#FFB6B6"/>
<path d="M64.5984 106.223C63.6637 104.34 62.7033 102.318 62.9572 100.231C63.2111 98.1437 65.2499 96.1428 67.2604 96.756C68.4627 97.1228 69.3744 98.306 70.6301 98.3625C72.3578 98.4402 73.3416 96.4595 73.8737 94.8135L76.0412 88.1101C80.2217 91.3952 74.9272 87.9512 80.1058 86.7487C82.1374 86.2769 84.1884 85.3635 85.3754 83.6481C86.5623 81.9327 86.5462 79.278 84.9061 77.9893C84.1019 77.3575 83.0335 77.12 82.2647 76.4454C81.7878 76.027 81.4582 75.4661 81.3247 74.8457C81.1913 74.2254 81.2611 73.5785 81.5237 73.0009C81.7864 72.4233 82.2279 71.9456 82.7831 71.6385C83.3383 71.3314 83.9775 71.2113 84.6063 71.2958L79.0902 70.625L80.7231 67.6476C79.5425 68.5849 77.8954 68.7159 76.4111 68.4537C74.9267 68.1915 73.5276 67.5853 72.075 67.1827C65.1016 65.2501 57.0161 68.6781 53.5552 75.0343C52.1969 74.5857 50.7343 74.5605 49.3613 74.962C47.9883 75.3636 46.7697 76.1729 45.8669 77.2828C44.3971 79.1616 44.0041 81.6635 43.9549 84.0486C43.8633 88.7513 44.9039 93.4071 46.9891 97.6231C47.6389 98.9333 48.4071 100.219 49.5117 101.177C50.6163 102.135 63.0995 107.445 64.5402 107.194" fill="#2F2E41"/>
<path d="M195.006 93.8138C195.008 94.6291 194.904 95.4411 194.695 96.2292V96.2323C194.692 96.248 194.685 96.2637 194.682 96.2794C194.048 98.6131 192.534 100.253 190.766 100.253C189.008 100.253 187.501 98.6257 186.857 96.3108C186.813 96.1506 186.775 95.9905 186.741 95.824C186.697 95.6387 186.662 95.4471 186.634 95.2492C186.609 95.0922 186.59 94.932 186.574 94.7687C186.552 94.5425 186.537 94.3164 186.533 94.0808V94.0777C186.527 93.9897 186.527 93.9018 186.527 93.8138V93.7353L186.53 93.7322C186.531 93.3341 186.557 92.9364 186.609 92.5418C186.631 92.3753 186.656 92.2151 186.687 92.0549C186.725 91.8602 186.766 91.6686 186.816 91.4801C186.857 91.3137 186.904 91.1535 186.954 90.9933C187.023 90.7797 187.099 90.5724 187.183 90.3745C187.237 90.2458 187.293 90.1201 187.35 89.9976C188.122 88.4084 189.366 87.375 190.766 87.375C192.704 87.375 194.337 89.3506 194.842 92.0455C194.849 92.0863 194.858 92.1272 194.861 92.168V92.1711C194.958 92.7133 195.006 93.2631 195.006 93.8138Z" fill="#E6E6E6"/>
<path d="M187.391 90.1358C187.389 90.1934 187.367 90.2486 187.33 90.2921C187.292 90.3356 187.24 90.3647 187.183 90.3745C187.237 90.2458 187.293 90.1201 187.35 89.9976C187.376 90.039 187.39 90.0869 187.391 90.1358Z" fill="#707A81"/>
<path d="M191.103 89.8497H188.34C188.205 89.8497 188.096 89.959 188.096 90.0939C188.096 90.2287 188.205 90.338 188.34 90.338H191.103C191.238 90.338 191.347 90.2287 191.347 90.0939C191.347 89.959 191.238 89.8497 191.103 89.8497Z" fill="#707A81"/>
<path d="M187.306 91.2351C187.306 91.3001 187.28 91.3624 187.234 91.4083C187.188 91.4542 187.126 91.48 187.061 91.4801H186.816C186.857 91.3137 186.904 91.1535 186.954 90.9933H187.061C187.125 90.9932 187.187 91.0186 187.233 91.0638C187.279 91.1091 187.305 91.1707 187.306 91.2351Z" fill="#707A81"/>
<path d="M188.503 90.9924H188.059C187.924 90.9924 187.814 91.1017 187.814 91.2366C187.814 91.3714 187.924 91.4807 188.059 91.4807H188.503C188.638 91.4807 188.747 91.3714 188.747 91.2366C188.747 91.1017 188.638 90.9924 188.503 90.9924Z" fill="#707A81"/>
<path d="M192.459 90.9517H189.696C189.561 90.9517 189.452 91.061 189.452 91.1958C189.452 91.3307 189.561 91.44 189.696 91.44H192.459C192.594 91.44 192.703 91.3307 192.703 91.1958C192.703 91.061 192.594 90.9517 192.459 90.9517Z" fill="#707A81"/>
<path d="M188.418 92.0944H187.974C187.839 92.0944 187.73 92.2037 187.73 92.3385C187.73 92.4734 187.839 92.5827 187.974 92.5827H188.418C188.553 92.5827 188.663 92.4734 188.663 92.3385C188.663 92.2037 188.553 92.0944 188.418 92.0944Z" fill="#707A81"/>
<path d="M189.859 92.0944H189.415C189.28 92.0944 189.17 92.2037 189.17 92.3385C189.17 92.4734 189.28 92.5827 189.415 92.5827H189.859C189.994 92.5827 190.103 92.4734 190.103 92.3385C190.103 92.2037 189.994 92.0944 189.859 92.0944Z" fill="#707A81"/>
<path d="M187.281 92.2967C187.281 92.3617 187.255 92.4239 187.209 92.4699C187.163 92.5158 187.101 92.5416 187.036 92.5417H186.609C186.631 92.3752 186.656 92.2151 186.687 92.0549H187.036C187.068 92.0546 187.1 92.0606 187.129 92.0726C187.159 92.0846 187.186 92.1024 187.209 92.1248C187.231 92.1473 187.249 92.1741 187.262 92.2036C187.274 92.2331 187.281 92.2647 187.281 92.2967Z" fill="#707A81"/>
<path d="M193.815 92.0537H191.052C190.917 92.0537 190.808 92.163 190.808 92.2978C190.808 92.4327 190.917 92.542 191.052 92.542H193.815C193.95 92.542 194.059 92.4327 194.059 92.2978C194.059 92.163 193.95 92.0537 193.815 92.0537Z" fill="#707A81"/>
<path d="M187.391 93.9049C187.391 93.9369 187.384 93.9686 187.372 93.9981C187.359 94.0276 187.341 94.0543 187.319 94.0768C187.296 94.0993 187.269 94.117 187.239 94.129C187.209 94.141 187.178 94.1471 187.146 94.1467H186.703C186.64 94.147 186.58 94.1234 186.533 94.0808V94.0776C186.527 93.9897 186.527 93.9018 186.527 93.8138V93.7353L186.53 93.7321C186.553 93.7092 186.58 93.691 186.609 93.6786C186.639 93.6662 186.671 93.6599 186.703 93.6599H187.146C187.211 93.66 187.273 93.6858 187.319 93.7318C187.365 93.7777 187.391 93.84 187.391 93.9049Z" fill="#CCCCCC"/>
<path d="M191.103 93.6188H188.34C188.205 93.6188 188.096 93.7281 188.096 93.863C188.096 93.9978 188.205 94.1071 188.34 94.1071H191.103C191.238 94.1071 191.347 93.9978 191.347 93.863C191.347 93.7281 191.238 93.6188 191.103 93.6188Z" fill="#CCCCCC"/>
<path d="M187.306 95.0042C187.306 95.0691 187.28 95.1314 187.234 95.1773C187.188 95.2232 187.126 95.2491 187.061 95.2492H186.634C186.609 95.0921 186.59 94.9319 186.574 94.7686C186.588 94.7635 186.603 94.7613 186.618 94.7623H187.061C187.125 94.7622 187.187 94.7876 187.233 94.8329C187.279 94.8782 187.305 94.9397 187.306 95.0042Z" fill="#CCCCCC"/>
<path d="M188.503 94.7615H188.059C187.924 94.7615 187.814 94.8708 187.814 95.0057C187.814 95.1405 187.924 95.2498 188.059 95.2498H188.503C188.638 95.2498 188.747 95.1405 188.747 95.0057C188.747 94.8708 188.638 94.7615 188.503 94.7615Z" fill="#CCCCCC"/>
<path d="M192.459 94.7208H189.696C189.561 94.7208 189.452 94.8301 189.452 94.965C189.452 95.0998 189.561 95.2091 189.696 95.2091H192.459C192.594 95.2091 192.703 95.0998 192.703 94.965C192.703 94.8301 192.594 94.7208 192.459 94.7208Z" fill="#CCCCCC"/>
<path d="M188.418 95.8635H187.974C187.839 95.8635 187.73 95.9728 187.73 96.1077C187.73 96.2425 187.839 96.3518 187.974 96.3518H188.418C188.553 96.3518 188.663 96.2425 188.663 96.1077C188.663 95.9728 188.553 95.8635 188.418 95.8635Z" fill="#CCCCCC"/>
<path d="M189.859 95.8635H189.415C189.28 95.8635 189.17 95.9728 189.17 96.1077C189.17 96.2425 189.28 96.3518 189.415 96.3518H189.859C189.994 96.3518 190.103 96.2425 190.103 96.1077C190.103 95.9728 189.994 95.8635 189.859 95.8635Z" fill="#CCCCCC"/>
<path d="M187.281 96.0658C187.281 96.1308 187.255 96.193 187.209 96.239C187.163 96.2849 187.101 96.3107 187.036 96.3108H186.857C186.813 96.1506 186.775 95.9905 186.741 95.824H187.036C187.068 95.8237 187.1 95.8297 187.129 95.8417C187.159 95.8537 187.186 95.8715 187.209 95.8939C187.231 95.9164 187.25 95.9432 187.262 95.9727C187.274 96.0022 187.281 96.0338 187.281 96.0658Z" fill="#CCCCCC"/>
<path d="M193.815 95.8228H191.052C190.917 95.8228 190.808 95.9321 190.808 96.067C190.808 96.2018 190.917 96.3111 191.052 96.3111H193.815C193.95 96.3111 194.059 96.2018 194.059 96.067C194.059 95.9321 193.95 95.8228 193.815 95.8228Z" fill="#CCCCCC"/>
</g>
<defs>
<clipPath id="clip0_481_6">
<rect width="232" height="181" fill="white"/>
</clipPath>
</defs>
</svg>
