<svg width="210" height="183" viewBox="0 0 210 183" fill="none" xmlns="http://www.w3.org/2000/svg">
<g clip-path="url(#clip0_481_144)">
<path d="M195.699 182.792V162.967C195.699 162.967 203.432 177.022 195.699 182.792Z" fill="#F1F1F1"/>
<path d="M196.177 182.788L181.56 169.381C181.56 169.381 197.152 173.195 196.177 182.788Z" fill="#F1F1F1"/>
<path d="M74.1191 35.2934H73.3024V12.9384C73.3024 9.50695 71.938 6.21601 69.5095 3.78958C67.081 1.36315 63.7872 2.18057e-06 60.3527 0H12.9497C11.2491 -3.95884e-06 9.56518 0.334654 7.99405 0.984868C6.42293 1.63508 4.99537 2.58812 3.79288 3.78956C2.59039 4.991 1.63653 6.41732 0.985743 7.98708C0.334959 9.55684 2.88167e-06 11.2393 0 12.9384V135.579C-2.9099e-06 139.011 1.36433 142.302 3.79286 144.728C6.22138 147.155 9.51517 148.518 12.9496 148.518H60.3527C63.7871 148.518 67.0809 147.155 69.5095 144.728C71.938 142.302 73.3023 139.011 73.3024 135.579V51.206H74.1191V35.2934Z" fill="#3F3D56"/>
<path d="M60.8752 3.3661H54.6876C54.9721 4.06313 55.0807 4.81938 55.0038 5.56823C54.927 6.31709 54.6669 7.03556 54.2467 7.66036C53.8264 8.28515 53.2588 8.7971 52.5939 9.1511C51.929 9.5051 51.1871 9.69028 50.4337 9.69034H23.2771C22.5236 9.69028 21.7818 9.5051 21.1168 9.1511C20.4519 8.7971 19.8843 8.28515 19.464 7.66035C19.0438 7.03556 18.7838 6.31709 18.7069 5.56823C18.63 4.81938 18.7386 4.06312 19.0232 3.36609H13.2439C11.9739 3.36609 10.7164 3.61601 9.54308 4.10158C8.36978 4.58715 7.30369 5.29887 6.40569 6.19609C5.50768 7.09332 4.79535 8.15848 4.30935 9.33076C3.82335 10.503 3.57321 11.7595 3.57321 13.0283V135.489C3.57321 136.758 3.82335 138.015 4.30934 139.187C4.79534 140.359 5.50767 141.424 6.40567 142.322C7.30368 143.219 8.36976 143.931 9.54306 144.416C10.7164 144.902 11.9739 145.152 13.2439 145.152H60.8752C63.44 145.152 65.8998 144.134 67.7134 142.322C69.527 140.51 70.5459 138.052 70.5459 135.489V13.0284C70.5459 11.7595 70.2957 10.5031 69.8097 9.33078C69.3237 8.1585 68.6114 7.09333 67.7134 6.19611C66.8154 5.29888 65.7493 4.58716 64.576 4.10159C63.4027 3.61601 62.1452 3.3661 60.8752 3.3661Z" fill="white"/>
<path d="M37.0595 94.736C49.8522 94.736 60.2227 84.3745 60.2227 71.5929C60.2227 58.8113 49.8522 48.4498 37.0595 48.4498C24.2669 48.4498 13.8964 58.8113 13.8964 71.5929C13.8964 84.3745 24.2669 94.736 37.0595 94.736Z" fill="#707A81"/>
<path d="M43.9233 73.1743L38.1631 79.1022C38.0378 79.2284 37.888 79.3277 37.723 79.3942C37.5579 79.4606 37.381 79.4927 37.2031 79.4886H37.184C37.0057 79.4925 36.8284 79.4603 36.663 79.3939C36.4975 79.3274 36.3472 79.2282 36.2211 79.1022L30.4637 73.1743C30.4446 73.1524 30.4226 73.1332 30.4033 73.114C30.1736 72.8678 30.0509 72.5405 30.0622 72.204C30.0736 71.8675 30.2179 71.5493 30.4637 71.319C30.7267 71.0721 31.0739 70.9346 31.4348 70.9346C31.7956 70.9346 32.1428 71.0721 32.4058 71.319L35.818 74.8817V65.6953C35.8339 65.3415 35.9857 65.0074 36.242 64.7626C36.4982 64.5178 36.839 64.3812 37.1935 64.3812C37.548 64.3812 37.8889 64.5178 38.1451 64.7626C38.4013 65.0074 38.5532 65.3415 38.5691 65.6953V74.8817L41.9786 71.319C42.2421 71.072 42.5898 70.9346 42.951 70.9346C43.3122 70.9346 43.6599 71.072 43.9233 71.319C43.9426 71.3381 43.9618 71.3573 43.9837 71.3793C44.2129 71.6258 44.3352 71.9529 44.3238 72.2892C44.3125 72.6255 44.1686 72.9437 43.9233 73.1743Z" fill="white"/>
<path d="M161.905 179.036L158.542 179.036L156.942 166.076L161.905 166.077L161.905 179.036Z" fill="#9F616A"/>
<path d="M162.762 182.293L151.919 182.293V182.156C151.919 181.037 152.364 179.965 153.155 179.174C153.947 178.383 155.02 177.939 156.14 177.939L162.762 177.939L162.762 182.293Z" fill="#2F2E41"/>
<path d="M136.358 178.926L133.109 178.058L134.914 165.125L139.708 166.406L136.358 178.926Z" fill="#9F616A"/>
<path d="M136.344 182.293L125.869 179.495L125.905 179.362C126.194 178.282 126.901 177.36 127.87 176.801C128.839 176.241 129.991 176.089 131.072 176.378L137.47 178.087L136.344 182.293Z" fill="#2F2E41"/>
<path d="M163.839 106.408L166.656 109.677L163.013 176.121H155.232L151.309 124.995L139.145 177.492L131.055 175.509L138.411 108.832L163.839 106.408Z" fill="#2F2E41"/>
<path d="M140.291 63.5111L148.039 59.6284L159.954 59.8377L170.207 65.0797L164.373 94.1882L166.893 109.365C157.153 111.847 146.956 111.931 137.177 109.61L137.099 109.591C137.099 109.591 142.891 89.0599 140.425 82.7943L140.291 63.5111Z" fill="#CBCBCB"/>
<path d="M162.705 47.9973C162.697 45.6741 161.766 43.4491 160.117 41.8109C158.468 40.1727 156.236 39.255 153.911 39.2593C151.586 39.2636 149.357 40.1895 147.715 41.8338C146.072 43.4781 145.149 45.7065 145.149 48.0298C145.149 50.353 146.072 52.5814 147.715 54.2257C149.357 55.87 151.586 56.7959 153.911 56.8002C156.236 56.8045 158.468 55.8868 160.117 54.2486C161.766 52.6104 162.697 50.3855 162.705 48.0622C162.706 48.0406 162.706 48.0189 162.705 47.9973Z" fill="#9F616A"/>
<path d="M149.997 42.9859C150.451 42.5583 151.05 42.3169 151.674 42.3096C152.612 42.2792 154.017 42.6119 154.616 43.3737C155.096 43.9859 155.119 44.8282 155.121 45.6063L155.126 47.7538C155.128 48.3891 155.135 49.0515 155.424 49.6175C155.713 50.1835 156.376 50.6134 156.982 50.4204C157.701 50.1915 158.017 49.2372 158.751 49.0656C159.303 48.9367 159.869 49.3394 160.111 49.8516C160.314 50.3825 160.382 50.9559 160.307 51.5195C160.237 52.6439 158.623 53.09 158.395 54.1932C158.263 54.8314 157.8 56.1044 158.395 55.8376C161.138 55.5635 162.342 53.9628 163.597 52.4559L166.429 49.0573C166.752 48.7199 167 48.3181 167.158 47.8782C167.228 47.5701 167.253 47.2534 167.233 46.938C167.217 46.0933 167.194 45.2488 167.164 44.4046C167.137 43.6669 166.951 42.7362 166.228 42.5846C165.852 42.5058 165.355 42.6433 165.156 42.3147C165.081 42.15 165.069 41.9639 165.122 41.791C165.281 40.9479 165.551 40.0661 165.273 39.2541C164.854 38.0296 163.412 37.5272 162.138 37.2961C160.863 37.0651 159.433 36.8664 158.633 35.8486C158.419 35.5106 158.186 35.1845 157.937 34.8716C157.57 34.5383 157.119 34.3111 156.633 34.2144C155.051 33.8144 153.38 33.9625 151.893 34.6347C151.276 34.9157 150.657 35.2942 149.981 35.2514C149.279 35.2069 148.679 34.713 147.985 34.5928C146.865 34.3987 145.794 35.2372 145.242 36.2302C144.558 37.4606 144.495 39.1456 145.462 40.1697C145.944 40.6807 146.663 41.0316 146.863 41.7047C146.945 41.9787 146.926 42.2738 146.998 42.5504C147.082 42.8257 147.242 43.0717 147.46 43.26C147.678 43.4484 147.944 43.5713 148.229 43.6147C148.914 43.7262 149.493 43.4127 149.997 42.9859Z" fill="#2F2E41"/>
<path d="M139.222 84.7342C139.389 85.1622 139.647 85.5484 139.98 85.8657C140.312 86.183 140.71 86.4236 141.145 86.5706C141.581 86.7177 142.043 86.7675 142.5 86.7167C142.957 86.6658 143.397 86.5155 143.789 86.2764L159.521 94.5853L160.03 90.7563L144.744 81.75C144.298 81.1181 143.636 80.6714 142.882 80.4948C142.129 80.3181 141.337 80.4237 140.656 80.7916C139.976 81.1594 139.454 81.764 139.189 82.4906C138.925 83.2173 138.937 84.0156 139.222 84.7342Z" fill="#9F616A"/>
<path d="M160.186 85.3963C159.93 85.7774 159.593 86.0977 159.199 86.3347C158.805 86.5716 158.364 86.7195 157.907 86.7677C157.45 86.816 156.988 86.7636 156.553 86.6141C156.119 86.4646 155.722 86.2218 155.392 85.9026L138.222 90.5711L138.371 85.7097L155.451 81.2772C156.025 80.7581 156.769 80.4671 157.543 80.4594C158.317 80.4517 159.066 80.7279 159.65 81.2356C160.233 81.7434 160.61 82.4473 160.709 83.2142C160.808 83.981 160.622 84.7574 160.186 85.3963Z" fill="#9F616A"/>
<path d="M166.859 65.2893L170.207 65.0797C170.207 65.0797 174.126 70.2471 171.952 75.8545C171.952 75.8545 172.329 95.9973 163.647 95.1699C154.966 94.3426 152.223 94.3426 152.223 94.3426L154.829 87.08L160.658 85.2817C160.658 85.2817 158.862 77.3631 162.263 74.0684L166.859 65.2893Z" fill="#CBCBCB"/>
<path d="M142.685 65.1122L142.211 62.6889C142.211 62.6889 135.233 62.5251 133.854 73.0897C133.854 73.0897 127.579 88.9006 133.729 90.9364C139.88 92.9722 146.645 90.9364 146.645 90.9364L146.136 83.9639L139.368 82.5839C139.368 82.5839 142.864 78.0649 140.961 74.1452L142.685 65.1122Z" fill="#CBCBCB"/>
<path d="M209.726 183H105.219C105.147 183 105.077 182.971 105.025 182.92C104.974 182.868 104.945 182.799 104.945 182.726C104.945 182.653 104.974 182.584 105.025 182.532C105.077 182.481 105.147 182.452 105.219 182.452H209.726C209.798 182.452 209.868 182.481 209.92 182.532C209.971 182.584 210 182.653 210 182.726C210 182.799 209.971 182.868 209.92 182.92C209.868 182.971 209.798 183 209.726 183Z" fill="#CBCBCB"/>
</g>
<defs>
<clipPath id="clip0_481_144">
<rect width="210" height="183" fill="white"/>
</clipPath>
</defs>
</svg>
