<svg width="281" height="148" viewBox="0 0 281 148" fill="none" xmlns="http://www.w3.org/2000/svg">
<g clip-path="url(#clip0_482_259)">
<path d="M231.137 147.372H52.1436C48.5375 147.368 45.0802 145.935 42.5303 143.388C39.9804 140.841 38.5461 137.388 38.5419 133.785V100.517C38.5461 96.9149 39.9804 93.4615 42.5303 90.9144C45.0802 88.3673 48.5375 86.9345 52.1436 86.9305L231.137 54.024C234.743 54.0281 238.2 55.4609 240.75 58.008C243.3 60.5551 244.734 64.0085 244.738 67.6107V133.785C244.734 137.388 243.3 140.841 240.75 143.388C238.2 145.935 234.743 147.368 231.137 147.372Z" fill="#3F3D56"/>
<path d="M55.3292 93.1164H54.7417V145.857H55.3292V93.1164Z" fill="#2F2E41"/>
<path d="M42.1114 95.0956H41.524V117.69H42.1114V95.0956Z" fill="#2F2E41"/>
<path d="M50.0353 86.9305H49.4479V139.671H50.0353V86.9305Z" fill="#2F2E41"/>
<path d="M206.003 86.4903H93.5157C92.7635 86.4895 92.0424 86.1906 91.5105 85.6593C90.9786 85.128 90.6794 84.4076 90.6785 83.6562V17.6383C90.6794 16.8869 90.9786 16.1665 91.5105 15.6352C92.0424 15.1039 92.7635 14.805 93.5157 14.8042H206.003C206.755 14.805 207.476 15.1039 208.008 15.6352C208.54 16.1665 208.839 16.8869 208.84 17.6383V83.6562C208.839 84.4076 208.54 85.128 208.008 85.6593C207.476 86.1906 206.755 86.4895 206.003 86.4903Z" fill="#E6E7E8"/>
<path d="M192.161 86.4903H93.1753C92.5133 86.4895 91.8787 86.2265 91.4107 85.759C90.9426 85.2914 90.6794 84.6575 90.6786 83.9963V25.902C90.6793 25.2408 90.9426 24.6069 91.4107 24.1394C91.8787 23.6718 92.5133 23.4088 93.1753 23.4081H192.161C192.823 23.4088 193.458 23.6718 193.926 24.1394C194.394 24.6069 194.657 25.2408 194.658 25.902V83.9963C194.657 84.6575 194.394 85.2914 193.926 85.759C193.458 86.2265 192.823 86.4895 192.161 86.4903Z" fill="#2F2E41"/>
<path d="M219.919 110.403H64.2431C63.5812 110.402 62.9466 110.139 62.4785 109.672C62.0104 109.204 61.7472 108.57 61.7464 107.909V85.3167C61.7472 84.6555 62.0104 84.0216 62.4785 83.5541C62.9466 83.0865 63.5812 82.8235 64.2431 82.8228H219.919C220.58 82.8235 221.215 83.0865 221.683 83.5541C222.151 84.0216 222.414 84.6555 222.415 85.3167V107.909C222.414 108.57 222.151 109.204 221.683 109.672C221.215 110.139 220.58 110.402 219.919 110.403Z" fill="#3F3D56"/>
<path d="M145.826 89.131H90.0177C88.7199 89.131 87.6678 90.1819 87.6678 91.4782V102.628C87.6678 103.924 88.7199 104.975 90.0177 104.975H145.826C147.124 104.975 148.176 103.924 148.176 102.628V91.4782C148.176 90.1819 147.124 89.131 145.826 89.131Z" fill="#707A81"/>
<path d="M176.814 92.5051C178.274 92.5051 179.458 91.3229 179.458 89.8645C179.458 88.4061 178.274 87.2238 176.814 87.2238C175.354 87.2238 174.171 88.4061 174.171 89.8645C174.171 91.3229 175.354 92.5051 176.814 92.5051Z" fill="#2F2E41"/>
<path d="M185.332 92.5051C186.792 92.5051 187.976 91.3229 187.976 89.8645C187.976 88.4061 186.792 87.2238 185.332 87.2238C183.872 87.2238 182.689 88.4061 182.689 89.8645C182.689 91.3229 183.872 92.5051 185.332 92.5051Z" fill="#2F2E41"/>
<path d="M193.85 92.5051C195.31 92.5051 196.494 91.3229 196.494 89.8645C196.494 88.4061 195.31 87.2238 193.85 87.2238C192.39 87.2238 191.207 88.4061 191.207 89.8645C191.207 91.3229 192.39 92.5051 193.85 92.5051Z" fill="#2F2E41"/>
<path d="M176.814 99.2535C178.274 99.2535 179.458 98.0712 179.458 96.6128C179.458 95.1544 178.274 93.9722 176.814 93.9722C175.354 93.9722 174.171 95.1544 174.171 96.6128C174.171 98.0712 175.354 99.2535 176.814 99.2535Z" fill="#2F2E41"/>
<path d="M185.332 99.2535C186.792 99.2535 187.976 98.0712 187.976 96.6128C187.976 95.1544 186.792 93.9722 185.332 93.9722C183.872 93.9722 182.689 95.1544 182.689 96.6128C182.689 98.0712 183.872 99.2535 185.332 99.2535Z" fill="#2F2E41"/>
<path d="M193.85 99.2535C195.31 99.2535 196.494 98.0712 196.494 96.6128C196.494 95.1544 195.31 93.9722 193.85 93.9722C192.39 93.9722 191.207 95.1544 191.207 96.6128C191.207 98.0712 192.39 99.2535 193.85 99.2535Z" fill="#2F2E41"/>
<path d="M176.814 106.002C178.274 106.002 179.458 104.819 179.458 103.361C179.458 101.903 178.274 100.72 176.814 100.72C175.354 100.72 174.171 101.903 174.171 103.361C174.171 104.819 175.354 106.002 176.814 106.002Z" fill="#2F2E41"/>
<path d="M157.088 95.757C158.548 95.757 159.731 94.5747 159.731 93.1164C159.731 91.658 158.548 90.4757 157.088 90.4757C155.628 90.4757 154.444 91.658 154.444 93.1164C154.444 94.5747 155.628 95.757 157.088 95.757Z" fill="#2F2E41"/>
<path d="M157.088 102.505C158.548 102.505 159.731 101.323 159.731 99.8647C159.731 98.4063 158.548 97.2241 157.088 97.2241C155.628 97.2241 154.444 98.4063 154.444 99.8647C154.444 101.323 155.628 102.505 157.088 102.505Z" fill="#2F2E41"/>
<path d="M230.487 59.3961C233.607 59.3961 236.137 56.8693 236.137 53.7524C236.137 50.6355 233.607 48.1088 230.487 48.1088C227.367 48.1088 224.837 50.6355 224.837 53.7524C224.837 56.8693 227.367 59.3961 230.487 59.3961Z" fill="#3F3D56"/>
<path d="M80.2175 95.757C81.6774 95.757 82.861 94.5747 82.861 93.1164C82.861 91.658 81.6774 90.4757 80.2175 90.4757C78.7575 90.4757 77.5739 91.658 77.5739 93.1164C77.5739 94.5747 78.7575 95.757 80.2175 95.757Z" fill="#2F2E41"/>
<path d="M80.2175 102.505C81.6774 102.505 82.861 101.323 82.861 99.8647C82.861 98.4063 81.6774 97.2241 80.2175 97.2241C78.7575 97.2241 77.5739 98.4063 77.5739 99.8647C77.5739 101.323 78.7575 102.505 80.2175 102.505Z" fill="#2F2E41"/>
<path d="M185.332 106.002C186.792 106.002 187.976 104.819 187.976 103.361C187.976 101.903 186.792 100.72 185.332 100.72C183.872 100.72 182.689 101.903 182.689 103.361C182.689 104.819 183.872 106.002 185.332 106.002Z" fill="#2F2E41"/>
<path d="M193.85 106.002C195.31 106.002 196.494 104.819 196.494 103.361C196.494 101.903 195.31 100.72 193.85 100.72C192.39 100.72 191.207 101.903 191.207 103.361C191.207 104.819 192.39 106.002 193.85 106.002Z" fill="#2F2E41"/>
<path d="M219.478 134.022H63.5088C62.8468 134.021 62.2122 133.758 61.7442 133.291C61.2761 132.823 61.0128 132.189 61.0121 131.528V119.205C61.0128 118.544 61.2761 117.91 61.7442 117.442C62.2122 116.975 62.8468 116.712 63.5088 116.711H219.478C220.14 116.712 220.774 116.975 221.243 117.442C221.711 117.91 221.974 118.544 221.975 119.205V131.528C221.974 132.189 221.711 132.823 221.243 133.291C220.774 133.758 220.14 134.021 219.478 134.022Z" fill="#2F2E41"/>
<path d="M101.987 36.1713H185.699C186.322 36.1713 186.92 36.4186 187.361 36.8588C187.802 37.2989 188.049 37.896 188.049 38.5185V79.7474C188.049 80.3699 187.802 80.9669 187.361 81.4071C186.92 81.8473 186.322 82.0946 185.699 82.0946H101.987C101.364 82.0946 100.766 81.8473 100.325 81.4071C99.8848 80.9669 99.6372 80.3699 99.6372 79.7474V38.5185C99.6372 38.2103 99.698 37.905 99.8161 37.6203C99.9342 37.3355 100.107 37.0767 100.325 36.8588C100.544 36.6408 100.803 36.4679 101.088 36.3499C101.373 36.232 101.678 36.1713 101.987 36.1713Z" fill="white"/>
<path d="M117.67 48.7017C120.154 48.7017 122.168 46.6901 122.168 44.2087C122.168 41.7274 120.154 39.7158 117.67 39.7158C115.186 39.7158 113.172 41.7274 113.172 44.2087C113.172 46.6901 115.186 48.7017 117.67 48.7017Z" fill="#707A81"/>
<path d="M135.65 55.5307H114.512C114.157 55.531 113.816 55.3906 113.565 55.1403C113.314 54.8899 113.172 54.5502 113.171 54.1957C113.171 53.8412 113.311 53.5008 113.561 53.2494C113.811 52.998 114.151 52.8561 114.506 52.8549H135.65C135.826 52.8545 136 52.8888 136.163 52.9558C136.325 53.0227 136.473 53.1211 136.598 53.2452C136.723 53.3692 136.822 53.5166 136.889 53.6789C136.957 53.8412 136.992 54.0152 136.992 54.191C136.992 54.3668 136.958 54.5409 136.89 54.7034C136.823 54.8658 136.725 55.0135 136.6 55.1379C136.476 55.2623 136.329 55.361 136.166 55.4284C136.003 55.4958 135.829 55.5306 135.653 55.5307H135.65Z" fill="#CCCCCC"/>
<path d="M124.712 60.8173H114.512C114.157 60.8178 113.816 60.6774 113.564 60.4268C113.313 60.1763 113.171 59.8362 113.17 59.4814C113.17 59.1265 113.31 58.786 113.561 58.5347C113.812 58.2834 114.153 58.1419 114.508 58.1414H124.712C125.067 58.1419 125.407 58.2831 125.658 58.5339C125.909 58.7848 126.049 59.1248 126.049 59.4793C126.049 59.8338 125.909 60.1739 125.658 60.4247C125.407 60.6756 125.067 60.8168 124.712 60.8173Z" fill="#CCCCCC"/>
<path d="M174.422 71.0811H117.449C117.094 71.0813 116.754 70.9407 116.502 70.6901C116.251 70.4396 116.109 70.0996 116.109 69.7449C116.109 69.3903 116.249 69.0499 116.5 68.7987C116.75 68.5475 117.091 68.406 117.446 68.4053H174.422C174.598 68.4049 174.772 68.4392 174.935 68.5062C175.097 68.5731 175.245 68.6715 175.37 68.7956C175.495 68.9197 175.594 69.0671 175.661 69.2294C175.729 69.3917 175.764 69.5657 175.764 69.7414C175.764 69.9172 175.73 70.0913 175.662 70.2538C175.595 70.4162 175.497 70.5639 175.372 70.6883C175.248 70.8127 175.101 70.9114 174.938 70.9788C174.775 71.0462 174.601 71.081 174.425 71.0811H174.422Z" fill="#CCCCCC"/>
<path d="M163.484 76.3678H117.449C117.094 76.3673 116.754 76.2261 116.503 75.9753C116.253 75.7244 116.112 75.3844 116.112 75.0299C116.112 74.6754 116.253 74.3353 116.503 74.0845C116.754 73.8336 117.094 73.6924 117.449 73.6919H163.484C163.839 73.6924 164.179 73.8336 164.43 74.0845C164.681 74.3353 164.821 74.6754 164.821 75.0299C164.821 75.3844 164.681 75.7244 164.43 75.9753C164.179 76.2261 163.839 76.3673 163.484 76.3678Z" fill="#CCCCCC"/>
<path d="M19.1895 131.884L18.8965 125.301C15.8414 123.67 12.4339 122.808 8.96979 122.791C13.7374 126.685 13.1416 134.19 16.3739 139.426C17.3946 141.052 18.7683 142.427 20.3933 143.45C22.0183 144.473 23.853 145.117 25.7612 145.336L29.7509 147.776C30.2984 144.727 30.1777 141.596 29.3972 138.599C28.6166 135.601 27.1948 132.808 25.2296 130.412C24.1139 129.079 22.8345 127.892 21.4216 126.878C20.4661 129.395 19.1895 131.884 19.1895 131.884Z" fill="#F2F2F2"/>
<path d="M40.9842 75.9971C41.3387 75.7738 41.6398 75.4755 41.8665 75.1233C42.0931 74.7712 42.2396 74.3736 42.2958 73.9588C42.352 73.5439 42.3164 73.1217 42.1916 72.7221C42.0668 72.3224 41.8557 71.955 41.5734 71.6456L51.0863 50.5891L45.8115 51.0403L37.3522 71.5771C36.8634 72.0854 36.5782 72.7551 36.5507 73.4594C36.5231 74.1637 36.7552 74.8537 37.2029 75.3985C37.6505 75.9433 38.2827 76.3051 38.9796 76.4155C39.6766 76.5258 40.3898 76.377 40.9842 75.9971Z" fill="#9E616A"/>
<path d="M58.2673 30.7962L55.7461 27.7998C55.7461 27.7998 54.309 27.5896 51.5129 31.7294C48.7607 35.8042 44.6155 44.4532 46.7817 45.682L37.1663 66.1961L43.2989 69.0899L53.6378 46.9429L58.2217 40.7124L58.2673 30.7962Z" fill="#E6E6E6"/>
<path d="M53.5594 66.0755L71.183 65.7821L72.6517 53.7524H53.5594V66.0755Z" fill="#9E616A"/>
<path d="M69.8518 139.671L73.9203 139.671L75.8559 123.995L69.8513 123.995L69.8518 139.671Z" fill="#9E616A"/>
<path d="M43.9322 139.616L48.0006 139.588L49.8261 123.899L44.5349 125.111L43.9322 139.616Z" fill="#9E616A"/>
<path d="M56.6571 43.3926L55.7354 45.7868L55.9195 48.181L73.9617 54.4232L73.0664 43.9451L71.0382 41.5509L56.6571 43.3926Z" fill="#FFB6B6"/>
<path d="M64.3972 21.8469C67.9561 21.8469 70.8411 18.9651 70.8411 15.4101C70.8411 11.8551 67.9561 8.97327 64.3972 8.97327C60.8383 8.97327 57.9533 11.8551 57.9533 15.4101C57.9533 18.9651 60.8383 21.8469 64.3972 21.8469Z" fill="#9E616A"/>
<path d="M68.8429 137.666L75.2743 137.283V140.035L81.3889 144.253C81.6909 144.462 81.9184 144.761 82.0381 145.108C82.1578 145.454 82.1634 145.83 82.0542 146.18C81.945 146.53 81.7266 146.836 81.431 147.053C81.1353 147.27 80.7779 147.388 80.4109 147.388H72.754L71.4342 144.665L70.9189 147.388H68.0319L68.8429 137.666Z" fill="#2F2E41"/>
<path d="M42.5404 137.621L48.969 137.193L48.9883 139.945L55.1323 144.121C55.4358 144.327 55.6653 144.624 55.7874 144.97C55.9095 145.316 55.9178 145.692 55.8111 146.042C55.7043 146.393 55.4881 146.701 55.194 146.92C54.8999 147.139 54.5433 147.259 54.1763 147.261L46.5195 147.315L45.1807 144.602L44.6845 147.328L41.7976 147.348L42.5404 137.621Z" fill="#2F2E41"/>
<path d="M42.6662 128.459L45.6287 104.805L47.3537 82.2359C46.4726 71.9667 52.3845 60.2073 52.3845 60.2073L54.6969 49.9613L71.7745 63.746L71.7705 63.7282C75.5685 74.0761 76.8269 79.1881 76.6188 90.2076L75.8705 129.82H76.1052C76.4947 129.82 76.8683 129.975 77.1437 130.25C77.4191 130.525 77.5739 130.898 77.5739 131.287C77.5739 131.676 77.4191 132.049 77.1437 132.325C76.8683 132.6 76.4947 132.754 76.1052 132.754H68.7621C68.3725 132.754 67.999 132.6 67.7236 132.325C67.4481 132.049 67.2934 131.676 67.2934 131.287C67.2934 130.898 67.4481 130.525 67.7236 130.25C67.999 129.975 68.3725 129.82 68.7621 129.82H68.9514L62.2112 82.6534L56.4966 102.458L50.0346 128.277C52.3845 127.691 52.0196 129.05 52.0196 129.82C52.0196 130.209 51.8649 130.582 51.5895 130.858C51.314 131.133 50.9405 131.287 50.551 131.287H43.2078C42.8662 131.288 42.5353 131.169 42.272 130.952C42.0086 130.734 41.8294 130.432 41.7653 130.097C41.7011 129.762 41.756 129.415 41.9204 129.116C42.0849 128.817 42.3486 128.585 42.6662 128.459Z" fill="#2F2E41"/>
<path d="M50.9386 60.9775L51.526 55.1094C51.587 54.87 51.7223 54.6561 51.9126 54.4982C52.1028 54.3404 52.3382 54.2468 52.585 54.2307C52.8297 51.4354 53.8595 39.376 53.9211 38.8501L53.9235 38.8278L54.3918 28.8351C54.4088 28.4722 54.559 28.1282 54.8138 27.869C55.0686 27.6097 55.4101 27.4533 55.773 27.4296L58.2464 27.2681C58.2804 27.2669 58.3125 27.2527 58.3361 27.2283C58.3597 27.2039 58.3729 27.1713 58.3729 27.1374C58.3729 26.5864 58.592 26.0579 58.9821 25.6683C59.3722 25.2786 59.9012 25.0597 60.4529 25.0597H67.7759C68.2502 25.0599 68.7081 25.233 69.0637 25.5465C69.4193 25.8601 69.6482 26.2925 69.7073 26.7626C69.7105 26.7949 69.7259 26.8249 69.7503 26.8464C69.7747 26.868 69.8063 26.8795 69.8389 26.8788L69.8398 26.8788C70.6718 26.8617 71.4825 27.1431 72.1247 27.6719C72.7668 28.2008 73.1979 28.9421 73.3397 29.7613C74.3408 35.5798 74.2911 54.067 73.2991 61.4086C72.9538 63.9644 73.6982 61.9402 73.8288 64.0786C73.8417 64.2852 73.8137 64.4924 73.7464 64.6882C73.6791 64.8841 73.5738 65.0647 73.4364 65.2198C74.0409 65.3953 74.2754 66.0476 74.1203 66.6622L74.249 66.6304C74.1728 66.9322 73.9797 67.1914 73.7122 67.3511C73.4447 67.5107 73.1247 67.5576 72.8225 67.4815L50.8785 65.2184C50.2493 65.0599 50.78 61.606 50.9386 60.9775Z" fill="#E6E6E6"/>
<path d="M93.2763 54.0178C92.9517 54.2826 92.5729 54.4731 92.1666 54.5759C91.7603 54.6787 91.3364 54.6912 90.9247 54.6126C90.5131 54.534 90.1236 54.3662 89.7839 54.1211C89.4442 53.8759 89.1624 53.5593 88.9585 53.1935L79.0352 54.6331L81.1391 49.7803L90.2343 49.1737C90.8721 48.8721 91.5985 48.8147 92.2758 49.0124C92.9531 49.21 93.5343 49.649 93.9092 50.2461C94.2842 50.8432 94.4268 51.5569 94.3102 52.2521C94.1935 52.9472 93.8257 53.5755 93.2763 54.0178Z" fill="#9E616A"/>
<path d="M74.833 35.3004C74.833 35.3004 75.9689 29.0268 72.6178 28.1585C69.2666 27.2901 67.4843 32.9167 67.4843 32.9167C64.7845 41.2321 64.4598 46.9602 67.3273 49.211L67.2709 55.0545C67.2709 55.0545 88.2649 55.5822 86.5304 54.3116C84.7959 53.041 86.4566 49.4478 86.4566 49.4478L76.1042 48.0733L76.7746 46.522L76.071 46.6571L75.5659 45.0736L74.833 35.3004Z" fill="#E6E6E6"/>
<path d="M34.2812 19.8932C33.0925 18.8619 31.9041 17.8296 30.7161 16.7965C31.1112 16.491 31.5546 16.2536 32.0281 16.0942C33.7748 15.5138 35.6678 16.0284 37.483 16.314C39.3009 16.6006 41.4145 16.5549 42.654 15.1986C43.9422 13.7881 43.7267 11.6346 43.8579 9.73321C44.0381 7.07896 45.091 4.45015 46.9842 2.58155C48.8774 0.712943 51.6366 -0.321207 54.2672 0.0893318C56.8967 0.502494 59.2856 2.45066 59.9945 5.01159C61.0655 5.10073 62.0668 5.5785 62.8093 6.3547C63.5517 7.13089 63.984 8.15177 64.0245 9.22458C64.0299 10.2276 63.6296 11.2757 62.8068 11.8528C61.984 12.4299 60.7236 12.3957 60.0634 11.6359L61.0255 10.604C59.3372 10.5238 57.3099 12.8341 56.8972 14.4724C56.483 16.1071 56.8564 17.8283 57.2795 19.4622C57.7026 21.0961 58.1813 22.7671 57.9801 24.4427C57.6914 26.8529 55.9784 28.9387 53.86 30.1299C51.7416 31.3211 49.26 31.7197 46.8307 31.7758C45.012 31.8183 43.1936 31.6807 41.4021 31.365C41.9252 30.9052 42.4456 30.4443 42.9687 29.9845L38.616 30.7286C37.91 30.5276 37.2091 30.2982 36.5187 30.0422C34.5102 29.2932 32.5577 28.2853 31.0451 26.7728C29.5309 25.2567 28.4938 23.1802 28.5719 21.0413C28.5991 20.3502 28.751 19.6697 29.0204 19.0326C30.7743 19.3186 32.5279 19.6054 34.2812 19.8932Z" fill="#2F2E41"/>
<path d="M71.2976 9.32535C70.3736 8.60559 69.1769 8.33257 68.0097 8.22919C65.9804 6.29557 64.903 5.40718 62.2221 6.22982C59.5412 7.05245 58.6059 9.84903 57.4484 12.4007C54.6735 18.5178 62.9213 24.1416 67.0335 21.2076C66.0657 20.315 67.8115 17.4648 68.0578 16.1722C68.2657 15.1429 68.8726 14.2374 69.7461 13.6531C70.7267 14.2011 72.1176 13.5035 72.4555 12.4163C72.8028 11.2985 72.2216 10.0451 71.2976 9.32535Z" fill="#2F2E41"/>
<path d="M1.54052e-06 147.651C-0.000273082 147.743 0.036179 147.832 0.10134 147.897C0.166501 147.963 0.255033 148 0.34746 148H280.65C280.743 148 280.832 147.963 280.898 147.898C280.963 147.832 281 147.743 281 147.651C281 147.558 280.963 147.469 280.898 147.404C280.832 147.338 280.743 147.302 280.65 147.302H0.349538C0.257114 147.301 0.168365 147.338 0.102815 147.403C0.0372646 147.468 0.000282343 147.556 1.54052e-06 147.649V147.651Z" fill="#CCCCCC"/>
<path d="M192.161 147.322H93.1753C91.7971 147.321 90.6802 146.64 90.6786 145.799V132.904C90.6802 132.063 91.7971 131.382 93.1753 131.381H192.161C193.54 131.382 194.656 132.063 194.658 132.904V145.799C194.656 146.64 193.54 147.321 192.161 147.322Z" fill="#2F2E41"/>
<path d="M184.524 144.388H100.812C99.5143 144.388 98.4623 143.751 98.4623 142.965V124.735C98.4623 123.95 99.5143 123.313 100.812 123.313H184.524C185.822 123.313 186.874 123.95 186.874 124.735V142.965C186.874 143.751 185.822 144.388 184.524 144.388Z" fill="white"/>
<path d="M113.031 133.412H170.004C170.359 133.412 170.7 133.552 170.951 133.803C171.202 134.053 171.344 134.393 171.344 134.748C171.345 135.103 171.204 135.443 170.953 135.694C170.703 135.945 170.363 136.087 170.007 136.088H113.031C112.676 136.088 112.335 135.948 112.083 135.698C111.832 135.448 111.69 135.108 111.689 134.753C111.688 134.398 111.828 134.058 112.079 133.806C112.329 133.555 112.669 133.413 113.025 133.412H113.031Z" fill="#CCCCCC"/>
<path d="M123.969 128.125H170.004C170.359 128.125 170.7 128.266 170.951 128.517C171.202 128.768 171.343 129.108 171.344 129.463C171.344 129.818 171.202 130.158 170.951 130.409C170.7 130.66 170.359 130.801 170.004 130.801H123.969C123.793 130.801 123.619 130.767 123.456 130.7C123.294 130.633 123.146 130.535 123.021 130.411C122.897 130.287 122.798 130.14 122.73 129.978C122.662 129.815 122.627 129.642 122.627 129.466C122.626 129.29 122.661 129.116 122.728 128.954C122.795 128.791 122.893 128.643 123.017 128.519C123.141 128.394 123.289 128.296 123.451 128.228C123.613 128.16 123.788 128.125 123.963 128.125L123.969 128.125Z" fill="#CCCCCC"/>
<path d="M62.0689 5.95047C61.0364 7.46132 59.8893 9.13759 58.0698 9.74944C57.9586 9.78274 57.8645 9.85762 57.8072 9.95847C57.7499 10.0593 57.7337 10.1784 57.7621 10.2908C57.7941 10.4028 57.8688 10.4977 57.9702 10.5552C58.0715 10.6126 58.1914 10.6281 58.3041 10.5982C60.3656 9.90497 61.6547 8.11419 62.8298 6.39473C62.859 6.34482 62.8781 6.28966 62.8859 6.23239C62.8938 6.17512 62.8903 6.11687 62.8756 6.06095C62.8609 6.00504 62.8354 5.95256 62.8004 5.90651C62.7654 5.86046 62.7217 5.82175 62.6717 5.79258C62.6218 5.76341 62.5665 5.74435 62.5092 5.7365C62.4519 5.72865 62.3936 5.73215 62.3376 5.74682C62.2816 5.76148 62.2291 5.78701 62.183 5.82195C62.1369 5.85689 62.0981 5.90056 62.0689 5.95047Z" fill="#E6E6E6"/>
<path d="M231.43 54.024H230.843V136.217H231.43V54.024Z" fill="#2F2E41"/>
<path d="M236.724 63.6643H236.137V145.857H236.724V63.6643Z" fill="#2F2E41"/>
<path d="M241.854 63.0603H241.266V139.693H241.854V63.0603Z" fill="#2F2E41"/>
<path d="M218.474 82.5989H82.1861V83.1857H218.474V82.5989Z" fill="#2F2E41"/>
<path d="M218.474 110.472H82.1861V111.059H218.474V110.472Z" fill="#2F2E41"/>
</g>
<defs>
<clipPath id="clip0_482_259">
<rect width="281" height="148" fill="white"/>
</clipPath>
</defs>
</svg>
