<svg width="100" height="78" viewBox="0 0 100 78" fill="none" xmlns="http://www.w3.org/2000/svg">
<g clip-path="url(#clip0_482_374)">
<path d="M15.5374 2.59576C16.2902 2.73885 16.8146 3.66199 17.0021 4.59768C17.1895 5.53336 17.1287 6.51711 17.2046 7.47772C17.2805 8.43833 17.5377 9.45847 18.1678 10.0001C17.5092 9.87642 16.9074 9.33751 16.5951 8.59183C16.6248 8.7785 16.6072 8.96976 16.5439 9.14763C16.4807 9.3255 16.374 9.48416 16.2337 9.60869C15.9762 9.80789 15.6756 9.94204 15.3569 10L12.7907 10.6715C12.3245 10.7935 11.8311 10.9137 11.3813 10.7162C10.8045 10.4629 10.4401 9.75312 10.1538 9.06937C9.7925 8.26041 9.54275 7.40484 9.41159 6.52676C9.29846 5.63022 9.37878 4.67043 9.74899 3.89333C9.95856 3.46504 10.2558 3.08703 10.6209 2.78455C10.9859 2.48207 11.4104 2.26208 11.866 2.13927C12.7113 1.89874 13.5891 1.9504 14.4544 2.00332C14.9459 2.03338 15.4557 2.06956 15.8904 2.36212" fill="#2F2E41"/>
<path d="M14.9864 73.9856H16.7799L17.6332 66.9681L14.9861 66.9683L14.9864 73.9856Z" fill="#A0616A"/>
<path d="M17.3767 74.1494V72.916L16.9052 72.9452L14.9859 73.0606L14.5417 73.0883L14.2021 77.219L14.1839 77.4404H15.4574L15.4983 77.2205L15.6833 76.2209L16.1608 77.2205L16.2655 77.4404H19.6418C19.8427 77.4391 20.035 77.3575 20.1769 77.2132C20.3189 77.069 20.399 76.8737 20.3998 76.6699C20.5423 75.9948 17.7345 74.5354 17.3767 74.1494Z" fill="#2F2E41"/>
<path d="M36.8823 68.4487L38.3933 67.4685L35.3853 61.0902L33.1552 62.537L36.8823 68.4487Z" fill="#A0616A"/>
<path d="M38.9831 67.2804L38.3281 66.2413L37.9464 66.5236L36.3906 67.6696L36.0311 67.9357L37.9388 71.6013L38.0411 71.7978L39.114 71.1019L39.0317 70.8943L38.6566 69.951L39.5898 70.5322L39.7947 70.6603L42.6392 68.8153C42.8078 68.7044 42.9265 68.5305 42.9694 68.3315C43.0124 68.1324 42.9762 67.9241 42.8687 67.7519C42.6302 67.1053 39.4896 67.4101 38.9831 67.2804Z" fill="#2F2E41"/>
<path d="M76.3306 10.38H46.7629C46.5938 10.38 46.4316 10.3119 46.312 10.1906C46.1924 10.0693 46.1252 9.90475 46.1252 9.73321C46.1252 9.56167 46.1924 9.39716 46.312 9.27586C46.4316 9.15457 46.5938 9.08643 46.7629 9.08643H76.3306C76.4997 9.08643 76.6619 9.15457 76.7815 9.27586C76.9011 9.39716 76.9682 9.56167 76.9682 9.73321C76.9682 9.90475 76.9011 10.0693 76.7815 10.1906C76.6619 10.3119 76.4997 10.38 76.3306 10.38Z" fill="#E6E6E6"/>
<path d="M76.3306 24.1725H46.7629C46.5938 24.1725 46.4316 24.1043 46.312 23.983C46.1924 23.8617 46.1252 23.6972 46.1252 23.5257C46.1252 23.3542 46.1924 23.1896 46.312 23.0683C46.4316 22.947 46.5938 22.8789 46.7629 22.8789H76.3306C76.4997 22.8789 76.6619 22.947 76.7815 23.0683C76.9011 23.1896 76.9682 23.3542 76.9682 23.5257C76.9682 23.6972 76.9011 23.8617 76.7815 23.983C76.6619 24.1043 76.4997 24.1725 76.3306 24.1725Z" fill="#707A81"/>
<path d="M91.2983 17.2808H46.7629C46.5938 17.2808 46.4316 17.2126 46.312 17.0913C46.1924 16.97 46.1252 16.8055 46.1252 16.634C46.1252 16.4624 46.1924 16.2979 46.312 16.1766C46.4316 16.0553 46.5938 15.9872 46.7629 15.9872H91.2983C91.4674 15.9872 91.6296 16.0553 91.7492 16.1766C91.8688 16.2979 91.936 16.4624 91.936 16.634C91.936 16.8055 91.8688 16.97 91.7492 17.0913C91.6296 17.2126 91.4674 17.2808 91.2983 17.2808Z" fill="#707A81"/>
<path d="M76.9682 26.1159C76.9298 26.1159 76.893 26.1005 76.8659 26.0729C76.8388 26.0454 76.8235 26.0081 76.8235 25.9692V21.0822C76.8235 21.0432 76.8388 21.0059 76.8659 20.9784C76.893 20.9509 76.9298 20.9354 76.9682 20.9354C77.0066 20.9354 77.0434 20.9509 77.0705 20.9784C77.0976 21.0059 77.1129 21.0432 77.1129 21.0822V25.9692C77.1129 26.0081 77.0976 26.0454 77.0705 26.073C77.0434 26.1005 77.0066 26.1159 76.9682 26.1159Z" fill="#3F3D56"/>
<path d="M43.5995 7.24109C43.5995 7.20217 43.6147 7.16485 43.6418 7.13734C43.669 7.10982 43.7058 7.09436 43.7441 7.09436H48.562C48.6004 7.09436 48.6372 7.10982 48.6643 7.13734C48.6914 7.16485 48.7067 7.20217 48.7067 7.24109C48.7067 7.28 48.6914 7.31733 48.6643 7.34484C48.6372 7.37236 48.6004 7.38782 48.562 7.38782H43.7441C43.7058 7.38782 43.669 7.37236 43.6419 7.34484C43.6147 7.31732 43.5995 7.28 43.5995 7.24109Z" fill="#3F3D56"/>
<path d="M46.1531 12.3234C46.1147 12.3234 46.0779 12.308 46.0508 12.2805C46.0237 12.253 46.0084 12.2156 46.0084 12.1767V7.28967C46.0084 7.25076 46.0237 7.21344 46.0508 7.18592C46.0779 7.1584 46.1147 7.14294 46.1531 7.14294C46.1914 7.14294 46.2282 7.1584 46.2554 7.18592C46.2825 7.21344 46.2977 7.25076 46.2977 7.28967V12.1767C46.2977 12.2156 46.2825 12.253 46.2554 12.2805C46.2282 12.308 46.1914 12.3234 46.1531 12.3234Z" fill="#3F3D56"/>
<path d="M19.7479 28.2926L9.51264 30.0937L9.6053 31.6726C9.6053 31.6726 7.63627 38.4874 8.68826 40.5485C9.74025 42.6097 10.5312 48.0074 10.5312 48.0074C10.5312 48.0074 6.62818 69.044 11.3468 69.4692C16.0655 69.8943 21.7251 69.4563 21.716 68.0613C21.7069 66.6663 18.0758 41.2431 18.0758 41.2431C18.0758 41.2431 24.166 54.76 25.3232 54.7706C26.4804 54.7812 26.4804 54.7813 26.4804 55.8084C26.4804 56.8355 25.0339 56.0302 26.4804 57.5333C27.9269 59.0364 29.9361 65.627 31.6799 65.5597C33.4237 65.4925 41.416 60.6712 41.3978 59.487C41.3796 58.3027 19.7479 28.2926 19.7479 28.2926Z" fill="#2F2E41"/>
<path d="M9.53332 30.446L9.99013 25.142L7.78276 16.8406C7.78276 16.8406 7.32595 12.7001 8.65804 12.3916C9.99013 12.0831 10.4732 12.0589 10.4732 12.0589L11.3717 10.3224H14.406L15.9208 11.7897C15.9208 11.7897 17.946 13.1102 17.946 13.6972C17.946 14.2841 20.1032 25.9381 19.7479 26.2003C19.3925 26.4626 19.3023 26.8112 19.7813 26.857C20.2604 26.9028 21.1283 26.6093 20.5497 27.1962C20.179 27.5999 19.9047 28.0845 19.7479 28.6127L9.53332 30.446Z" fill="#E6E6E6"/>
<path d="M31.6748 29.2869C31.6362 29.0863 31.5552 28.8965 31.4372 28.7308C31.3193 28.565 31.1672 28.4272 30.9916 28.327C30.816 28.2267 30.621 28.1663 30.4201 28.15C30.2193 28.1336 30.0173 28.1618 29.8282 28.2324L25.0703 23.1141L23.351 24.101L29.0459 30.1382C29.1868 30.4522 29.4364 30.7029 29.7473 30.8428C30.0583 30.9826 30.409 31.0019 30.7331 30.897C31.0571 30.7921 31.332 30.5702 31.5055 30.2735C31.6791 29.9767 31.7393 29.6257 31.6748 29.2869Z" fill="#A0616A"/>
<path d="M13.144 11.8047C13.144 11.8047 12.2942 15.0988 13.6002 16.2504C14.9063 17.4019 15.9305 18.6289 16.5922 18.89C17.2538 19.151 20.4001 23.0117 21.0208 23.0293C21.6414 23.0468 21.3029 23.8302 22.2046 24.0496C23.1064 24.2689 23.3464 24.2273 23.3875 24.4707C23.4285 24.7142 25.9918 27.2536 25.9918 27.2536L27.8477 25.5466L18.9366 13.9673C18.2655 13.0953 17.3676 12.4308 16.3441 12.0487C15.3207 11.6666 14.2123 11.5821 13.144 11.8047Z" fill="#E6E6E6"/>
<path d="M34.9977 28.2552L7.88926 40.2307C7.81249 40.2646 7.72989 40.2829 7.64617 40.2844C7.56245 40.2859 7.47925 40.2707 7.40132 40.2396C7.3234 40.2086 7.25227 40.1622 7.192 40.1032C7.13173 40.0443 7.08351 39.9738 7.05007 39.896C7.01664 39.8181 6.99865 39.7343 6.99714 39.6494C6.99563 39.5645 7.01063 39.4801 7.04127 39.401C7.07191 39.322 7.1176 39.2498 7.17573 39.1887C7.23387 39.1276 7.3033 39.0786 7.38007 39.0447L34.4886 27.0692C34.5653 27.0353 34.6479 27.017 34.7316 27.0155C34.8154 27.014 34.8986 27.0292 34.9765 27.0602C35.0544 27.0913 35.1255 27.1377 35.1858 27.1966C35.2461 27.2556 35.2943 27.326 35.3277 27.4039C35.3612 27.4818 35.3792 27.5656 35.3807 27.6505C35.3822 27.7354 35.3672 27.8198 35.3365 27.8989C35.3059 27.9779 35.2602 28.0501 35.2021 28.1112C35.144 28.1723 35.0745 28.2212 34.9977 28.2552Z" fill="#707A81"/>
<path d="M46.6904 76.4882C46.7265 76.4899 46.7621 76.4803 46.7926 76.4607C46.8231 76.4411 46.8469 76.4125 46.8608 76.3788C46.8748 76.345 46.8781 76.3077 46.8704 76.272C46.8628 76.2362 46.8444 76.2037 46.8179 76.1789L46.8059 76.1302L46.8107 76.1186C46.847 76.0316 46.9078 75.9574 46.9856 75.9054C47.0633 75.8533 47.1544 75.8258 47.2476 75.8261C47.3407 75.8265 47.4316 75.8547 47.509 75.9074C47.5863 75.96 47.6466 76.0346 47.6823 76.1219C47.8248 76.4701 48.0063 76.819 48.051 77.1872C48.0707 77.35 48.0624 77.515 48.0265 77.6749C48.3613 76.934 48.5352 76.1288 48.5363 75.3138C48.5364 75.1093 48.5252 74.9049 48.5027 74.7017C48.4842 74.535 48.4585 74.3696 48.4256 74.2054C48.2462 73.3142 47.8609 72.4789 47.3013 71.7681C47.0305 71.6182 46.8115 71.3877 46.6738 71.1077C46.624 71.007 46.5887 70.8996 46.5692 70.7887C46.6285 70.6299 46.6597 70.4617 46.6613 70.2919C46.7039 70.2263 46.7801 70.1938 46.8266 70.1298C47.0578 69.8118 47.3764 69.8673 47.5427 70.2995C47.898 70.4814 47.9014 70.783 47.6834 71.0731C47.5448 71.2577 47.5257 71.5075 47.404 71.7051C47.4165 71.7213 47.4295 71.7371 47.4421 71.7533C47.6709 72.0518 47.8704 72.3724 48.0376 72.7104C47.9969 72.3317 48.0455 71.9487 48.1792 71.5928C48.3148 71.2611 48.5688 70.9818 48.7926 70.695C48.8517 70.618 48.9321 70.5605 49.0235 70.5298C49.1149 70.4991 49.2132 70.4965 49.306 70.5225C49.3988 70.5485 49.4819 70.6017 49.5449 70.6756C49.6079 70.7495 49.6478 70.8406 49.6597 70.9375L49.6611 70.9502C49.6278 70.9692 49.5953 70.9894 49.5635 71.0108C49.5235 71.0379 49.4925 71.0766 49.4746 71.1218C49.4567 71.1671 49.4527 71.2168 49.4631 71.2644C49.4735 71.312 49.4978 71.3554 49.5329 71.3887C49.568 71.4221 49.6122 71.4439 49.6597 71.4513L49.6646 71.4521C49.6527 71.5736 49.6318 71.694 49.602 71.8123C49.889 72.9382 49.2693 73.3483 48.3846 73.3667C48.365 73.3768 48.346 73.387 48.3265 73.3967C48.4945 73.8796 48.5998 74.3827 48.64 74.8932C48.6627 75.1944 48.6613 75.4969 48.636 75.7979L48.6375 75.7872C48.7016 75.4526 48.8776 75.1506 49.1357 74.9323C49.5192 74.6128 50.061 74.4951 50.4746 74.2383C50.5186 74.2096 50.5697 74.1944 50.622 74.1942C50.6742 74.1941 50.7254 74.2091 50.7695 74.2375C50.8136 74.266 50.8488 74.3066 50.8709 74.3546C50.893 74.4026 50.9011 74.4561 50.8942 74.5086L50.8925 74.5198C50.8308 74.5453 50.7708 74.5746 50.7127 74.6077C50.6795 74.6267 50.647 74.6469 50.6151 74.6682C50.5752 74.6953 50.5442 74.7341 50.5263 74.7793C50.5083 74.8246 50.5043 74.8743 50.5147 74.9219C50.5251 74.9695 50.5495 75.0129 50.5845 75.0462C50.6196 75.0796 50.6638 75.1014 50.7114 75.1088L50.7162 75.1096L50.7262 75.1111C50.6209 75.3663 50.473 75.6012 50.2891 75.8055C50.1096 76.7884 49.3388 76.8817 48.5143 76.5954H48.5138C48.4233 76.9942 48.2922 77.3823 48.1226 77.7536H46.7254C46.7204 77.7379 46.7159 77.7216 46.7114 77.7059C46.8407 77.7141 46.9706 77.7063 47.098 77.6825C46.9943 77.5535 46.8907 77.4234 46.787 77.2944C46.7847 77.292 46.7825 77.2895 46.7805 77.2868C46.7279 77.2208 46.6748 77.1552 46.6223 77.0892C46.6195 76.8868 46.6424 76.6847 46.6904 76.4882Z" fill="#F2F2F2"/>
<path d="M0.17224 77.9549L56.5467 78C56.5924 78 56.6362 77.9816 56.6685 77.9488C56.7008 77.916 56.719 77.8716 56.719 77.8253C56.719 77.7789 56.7008 77.7345 56.6685 77.7017C56.6362 77.669 56.5924 77.6506 56.5467 77.6506L0.17224 77.6055C0.126647 77.6056 0.0829653 77.6241 0.0507728 77.6568C0.0185803 77.6896 0.00050354 77.7339 0.00050354 77.7802C0.00050354 77.8264 0.0185803 77.8708 0.0507728 77.9035C0.0829653 77.9363 0.126647 77.9548 0.17224 77.9549Z" fill="#CACACA"/>
<path d="M12.9139 9.51032C14.7766 9.51032 16.2866 7.97863 16.2866 6.0892C16.2866 4.19978 14.7766 2.66809 12.9139 2.66809C11.0512 2.66809 9.54123 4.19978 9.54123 6.0892C9.54123 7.97863 11.0512 9.51032 12.9139 9.51032Z" fill="#A0616A"/>
<path d="M11.4457 6.29611C11.4397 6.00885 10.9762 5.96307 10.8058 6.19254C10.6353 6.42201 10.6777 6.7423 10.7281 7.02504C10.849 7.70285 10.9699 8.38066 11.0907 9.05847C11.2341 9.86251 11.4369 10.7596 12.1189 11.1943C11.6067 11.4228 11.0524 11.6564 10.5045 11.5413C9.95662 11.4262 9.48768 10.7901 9.75059 10.2891C9.6198 10.6677 9.481 11.0601 9.15502 11.3122C9.05474 11.3957 8.93488 11.4514 8.80708 11.474C8.67929 11.4966 8.5479 11.4853 8.42567 11.4412C7.94551 11.2458 8.17795 10.5423 7.96451 10.069C7.35173 8.71024 6.77472 7.4027 7.74632 6.17608C7.88542 6.00047 7.77505 5.66111 7.77488 5.3449C7.774 3.63866 9.48954 2.12603 11.1283 1.74128C11.1633 1.73306 11.1968 1.72578 11.229 1.71941C11.6804 1.63314 12.1445 1.64214 12.5924 1.74586C13.0402 1.84958 13.4621 2.0458 13.8319 2.32227C14.2299 1.98419 14.8741 2.13411 15.233 2.51456C15.5919 2.89502 16.2646 3.49446 16.3548 4.01305C16.445 4.53163 16.2499 5.0186 16.4995 5.48034C15.9301 5.59456 15.0317 5.40505 14.6084 5.00216C14.3355 5.53841 13.6328 5.63785 13.038 5.65222C12.4432 5.66659 11.7502 5.71233 11.415 6.21087" fill="#2F2E41"/>
<path d="M49.726 6.66912e-05C45.9061 0.0873221 42.0857 0.161806 38.2662 0.261905C37.5543 0.280561 36.7715 0.340883 36.2205 0.854058C35.6718 1.36506 35.5798 2.16923 35.5695 2.88254C35.5419 4.79283 35.5879 6.70709 35.5982 8.61759L35.6338 15.1744C35.6353 15.4576 35.9884 15.4465 36.0677 15.1744C37.1715 11.3893 39.8684 7.60416 36.0062 3.81903C35.498 3.32099 35.9075 2.26302 36.2204 1.59397C36.5473 0.894968 37.2972 0.746314 37.991 0.711941C38.8813 0.66783 39.7755 0.667552 40.6666 0.647196L43.4458 0.583714L49.726 0.440256C50.0048 0.433887 50.0058 -0.00632483 49.726 6.66912e-05Z" fill="#F2F2F2"/>
<path d="M85.8348 29.3338C89.6547 29.2465 93.4751 29.172 97.2946 29.0719C98.0065 29.0533 98.7892 28.993 99.3403 28.4798C99.889 27.9688 99.981 27.1646 99.9913 26.4513C100.019 24.541 99.9729 22.6268 99.9626 20.7163C99.9507 18.5307 99.9389 16.345 99.927 14.1594C99.9255 13.8763 99.5244 13.8775 99.4931 14.1594C99.0723 17.9446 94.9949 21.7304 99.5546 25.5148C100.102 25.9687 99.6532 27.0708 99.3404 27.7399C99.0135 28.4389 98.2636 28.5875 97.5698 28.6219C96.6795 28.666 95.7853 28.6663 94.8942 28.6867L92.115 28.7501L85.8348 28.8936C85.556 28.9 85.555 29.3402 85.8348 29.3338Z" fill="#F2F2F2"/>
<path d="M58.2058 70.2549L41.5477 63.2442C41.3325 63.1537 41.1616 62.9801 41.0726 62.7617C40.9835 62.5433 40.9837 62.298 41.0729 62.0797L44.9994 52.4803C45.0886 52.262 45.2598 52.0886 45.4751 51.9983C45.6904 51.908 45.9322 51.9081 46.1474 51.9987L67.1576 60.841C67.3728 60.9316 67.5437 61.1051 67.6328 61.3235C67.7218 61.5419 67.7217 61.7873 67.6324 62.0056L65.5117 67.1903C65.2303 67.8782 64.8182 68.503 64.2988 69.0293C63.7794 69.5556 63.1628 69.9729 62.4844 70.2575C61.806 70.542 61.079 70.6883 60.3448 70.6878C59.6107 70.6874 58.8839 70.5403 58.2058 70.2549Z" fill="#F2F2F2"/>
<path d="M57.1418 69.1919L45.5948 64.3322C44.5014 63.8706 43.6331 62.9878 43.1805 61.8776C42.7279 60.7674 42.7279 59.5204 43.1806 58.4103L43.9268 56.5859C44.3819 55.4768 45.2522 54.596 46.3466 54.1369C47.4411 53.6778 48.6705 53.6778 49.7649 54.137L63.1105 59.7536C64.2039 60.2152 65.0722 61.098 65.5248 62.2082C65.9774 63.3184 65.9773 64.5654 65.5247 65.6756C64.8712 67.2681 63.6216 68.5328 62.05 69.192C60.4785 69.8512 58.7133 69.8511 57.1418 69.1919Z" fill="white"/>
<path d="M56.401 60.1508L49.8304 57.3856C49.803 57.374 49.778 57.3571 49.757 57.3357C49.7359 57.3143 49.7193 57.289 49.7079 57.2611C49.6965 57.2332 49.6907 57.2033 49.6907 57.1732C49.6907 57.143 49.6966 57.1131 49.708 57.0852C49.7194 57.0573 49.7361 57.032 49.7572 57.0107C49.7782 56.9894 49.8032 56.9725 49.8307 56.9609C49.8582 56.9494 49.8876 56.9435 49.9174 56.9435C49.9471 56.9435 49.9766 56.9495 50.0041 56.961L56.5747 59.7263C56.63 59.7498 56.6739 59.7945 56.6968 59.8508C56.7197 59.9071 56.7196 59.9702 56.6966 60.0264C56.6736 60.0826 56.6296 60.1273 56.5742 60.1506C56.5188 60.174 56.4565 60.174 56.401 60.1508Z" fill="#E6E6E6"/>
<path d="M54.5496 64.6775L47.979 61.9122C47.9515 61.9006 47.9265 61.8837 47.9055 61.8623C47.8845 61.841 47.8678 61.8156 47.8564 61.7877C47.8451 61.7598 47.8392 61.7299 47.8392 61.6998C47.8393 61.6696 47.8451 61.6397 47.8565 61.6118C47.8679 61.584 47.8846 61.5586 47.9057 61.5373C47.9267 61.516 47.9517 61.4991 47.9792 61.4875C48.0067 61.476 48.0362 61.4701 48.0659 61.4701C48.0957 61.4701 48.1251 61.4761 48.1526 61.4876L54.7232 64.2529C54.7787 64.2763 54.8228 64.321 54.8457 64.3774C54.8687 64.4337 54.8687 64.497 54.8456 64.5533C54.8226 64.6096 54.7785 64.6543 54.723 64.6776C54.6674 64.7009 54.6051 64.7008 54.5496 64.6775Z" fill="#E6E6E6"/>
<path d="M60.3869 64.483L48.9041 59.6503C48.8766 59.6388 48.8516 59.6219 48.8305 59.6005C48.8094 59.5792 48.7927 59.5538 48.7813 59.5259C48.7699 59.498 48.7641 59.4681 48.7641 59.4379C48.7641 59.4077 48.77 59.3778 48.7814 59.3499C48.7928 59.322 48.8095 59.2966 48.8306 59.2753C48.8517 59.254 48.8767 59.237 48.9042 59.2255C48.9317 59.214 48.9612 59.2081 48.991 59.2081C49.0208 59.2082 49.0503 59.2142 49.0777 59.2258L60.5606 64.0584C60.6159 64.0819 60.6599 64.1267 60.6827 64.1829C60.7056 64.2392 60.7055 64.3024 60.6825 64.3586C60.6595 64.4148 60.6155 64.4594 60.5601 64.4827C60.5047 64.5061 60.4424 64.5062 60.3869 64.483Z" fill="#F2F2F2"/>
<path d="M31.4452 51.9139L14.7871 44.9032C14.5719 44.8126 14.401 44.639 14.312 44.4206C14.2229 44.2022 14.2231 43.9569 14.3124 43.7386L18.2388 34.1392C18.3281 33.9209 18.4992 33.7475 18.7145 33.6572C18.9298 33.5669 19.1716 33.5671 19.3868 33.6576L40.397 42.4999C40.6122 42.5905 40.7832 42.7641 40.8722 42.9825C40.9612 43.2009 40.9611 43.4462 40.8718 43.6645L38.7511 48.8493C38.4697 49.5371 38.0576 50.162 37.5382 50.6882C37.0188 51.2145 36.4023 51.6318 35.7238 51.9164C35.0454 52.201 34.3184 52.3472 33.5843 52.3468C32.8501 52.3463 32.1233 52.1992 31.4452 51.9139Z" fill="#F2F2F2"/>
<path d="M30.3812 50.8507L18.8342 45.991C17.7408 45.5294 16.8725 44.6466 16.4199 43.5364C15.9673 42.4262 15.9674 41.1792 16.42 40.0691L17.1662 38.2447C17.6213 37.1356 18.4916 36.2548 19.5861 35.7957C20.6806 35.3366 21.9099 35.3366 23.0044 35.7958L36.3499 41.4124C37.4433 41.874 38.3116 42.7568 38.7642 43.867C39.2168 44.9772 39.2168 46.2242 38.7641 47.3344C38.1106 48.927 36.861 50.1916 35.2895 50.8508C33.7179 51.51 31.9528 51.51 30.3812 50.8507Z" fill="white"/>
<path d="M29.6405 41.8098L23.0699 39.0445C23.0144 39.0211 22.9703 38.9764 22.9473 38.9201C22.9244 38.8637 22.9244 38.8005 22.9474 38.7442C22.9705 38.6879 23.0146 38.6432 23.0701 38.6199C23.1256 38.5966 23.188 38.5966 23.2435 38.62L29.8141 41.3852C29.8695 41.4087 29.9134 41.4535 29.9362 41.5097C29.9591 41.566 29.959 41.6292 29.936 41.6854C29.913 41.7416 29.869 41.7862 29.8136 41.8096C29.7582 41.8329 29.6959 41.833 29.6405 41.8098Z" fill="#E6E6E6"/>
<path d="M27.789 46.3363L21.2184 43.571C21.1909 43.5594 21.1659 43.5425 21.1449 43.5211C21.1239 43.4998 21.1072 43.4744 21.0958 43.4465C21.0845 43.4187 21.0786 43.3888 21.0786 43.3586C21.0787 43.3284 21.0845 43.2985 21.0959 43.2706C21.1073 43.2428 21.124 43.2174 21.1451 43.1961C21.1661 43.1748 21.1911 43.1579 21.2186 43.1463C21.2461 43.1348 21.2756 43.1289 21.3053 43.1289C21.3351 43.1289 21.3645 43.1349 21.392 43.1465L27.9626 45.9117C27.9901 45.9233 28.0151 45.9402 28.0361 45.9616C28.0571 45.9829 28.0738 46.0083 28.0852 46.0362C28.0965 46.0641 28.1024 46.094 28.1024 46.1241C28.1023 46.1543 28.0965 46.1842 28.0851 46.2121C28.0737 46.2399 28.057 46.2653 28.0359 46.2866C28.0149 46.3079 27.9899 46.3248 27.9624 46.3364C27.9349 46.3479 27.9054 46.3538 27.8757 46.3538C27.8459 46.3538 27.8165 46.3478 27.789 46.3363Z" fill="#E6E6E6"/>
<path d="M33.6263 46.1419L22.1435 41.3093C22.116 41.2977 22.091 41.2808 22.0699 41.2594C22.0489 41.2381 22.0322 41.2127 22.0208 41.1848C22.0094 41.1569 22.0035 41.127 22.0035 41.0968C22.0035 41.0666 22.0094 41.0367 22.0208 41.0088C22.0322 40.9809 22.0489 40.9556 22.07 40.9342C22.0911 40.9129 22.1161 40.896 22.1436 40.8844C22.1712 40.8729 22.2006 40.867 22.2304 40.8671C22.2602 40.8671 22.2897 40.8731 22.3172 40.8847L33.8 45.7174C33.8553 45.7408 33.8993 45.7856 33.9221 45.8419C33.945 45.8981 33.9449 45.9613 33.9219 46.0175C33.8989 46.0737 33.8549 46.1184 33.7995 46.1417C33.7441 46.165 33.6818 46.1651 33.6263 46.1419Z" fill="#F2F2F2"/>
<path d="M20.5223 35.3181C20.5605 35.1174 20.5552 34.9107 20.5068 34.7122C20.4584 34.5138 20.3681 34.3284 20.2422 34.1688C20.1162 34.0092 19.9576 33.8793 19.7773 33.7881C19.5969 33.6968 19.3992 33.6463 19.1978 33.6402L16.6695 27.0895L14.7112 27.3534L17.7703 35.1115C17.7853 35.4562 17.9245 35.7833 18.1614 36.0309C18.3984 36.2785 18.7166 36.4293 19.0558 36.4547C19.395 36.4802 19.7317 36.3786 20.002 36.1691C20.2723 35.9596 20.4574 35.6568 20.5223 35.3181Z" fill="#A0616A"/>
<path d="M9.77201 12.0795C9.77201 12.0795 7.77048 14.813 8.55784 16.3761C9.34521 17.9392 9.84333 19.4655 10.361 19.9584C10.8786 20.4513 12.3752 25.2248 12.9444 25.4762C13.5136 25.7277 12.9112 26.3261 13.6668 26.8713C14.4224 27.4165 14.6604 27.4688 14.6089 27.7102C14.5573 27.9516 15.9997 31.2784 15.9997 31.2784L18.3499 30.3984L13.3451 12.7399L9.77201 12.0795Z" fill="#E6E6E6"/>
</g>
<defs>
<clipPath id="clip0_482_374">
<rect width="100" height="78" fill="white"/>
</clipPath>
</defs>
</svg>
