<svg width="120" height="84" viewBox="0 0 120 84" fill="none" xmlns="http://www.w3.org/2000/svg">
<g clip-path="url(#clip0_482_324)">
<path d="M61.2864 83.822C64.8956 83.822 67.8215 80.9158 67.8215 77.3307C67.8215 73.7457 64.8956 70.8395 61.2864 70.8395C57.6772 70.8395 54.7514 73.7457 54.7514 77.3307C54.7514 80.9158 57.6772 83.822 61.2864 83.822Z" fill="#707A81"/>
<path d="M100.327 83.4573C103.983 82.3666 107.87 81.2294 110.77 78.6366C113.361 76.3198 115.11 72.7819 114.036 69.3074C112.965 65.8399 109.757 63.5278 106.444 62.3779C104.565 61.7257 102.6 61.3638 100.635 61.0796C98.4988 60.7706 96.3534 60.5174 94.2091 60.2738C85.5262 59.2874 76.8107 58.6847 68.0626 58.466C63.746 58.358 59.4302 58.3606 55.1129 58.4229C51.2573 58.4785 47.1967 58.4771 43.6199 56.8494C40.8384 55.5836 38.314 53.2807 37.539 50.2546C36.6443 46.7613 38.2945 43.204 40.6616 40.674C41.9093 39.3405 43.3676 38.2181 44.8719 37.1861C46.5039 36.0664 48.1928 35.0261 49.9182 34.055C53.3166 32.1433 56.8695 30.5163 60.54 29.191C62.3508 28.537 64.1884 27.9728 66.0419 27.4522C67.6071 27.0127 69.1771 26.5726 70.6898 25.9737C73.614 24.8161 76.3953 22.8551 77.1388 19.6403C77.8435 16.5934 76.6554 13.2858 74.5724 11.0224C72.1625 8.40371 68.529 7.25577 65.0454 7.07004C61.1345 6.86152 57.3138 7.83375 53.6379 9.06763C49.7174 10.3837 45.8813 11.8969 41.8779 12.9628C37.908 14.0189 33.8613 14.766 29.7745 15.1976C27.7738 15.4092 25.7128 15.6481 23.7002 15.4862C22.0136 15.3504 20.3355 14.8577 19.0924 13.6686C18.0266 12.6491 17.3916 11.248 17.6099 9.76932C17.6496 9.50075 18.0603 9.61493 18.0209 9.88186C17.7552 11.6818 18.987 13.3404 20.5048 14.19C22.2591 15.1719 24.3938 15.1732 26.3469 15.0609C30.5817 14.8069 34.7879 14.2029 38.9218 13.2553C42.9838 12.3337 46.9008 11.0163 50.8133 9.60903C54.5292 8.27246 58.3281 6.96797 62.298 6.67847C65.7425 6.42728 69.366 6.92573 72.3668 8.71378C75.0041 10.2852 76.9435 12.9059 77.5614 15.9132C78.1653 18.8518 77.3289 21.8096 75.0895 23.8603C72.7707 25.9836 69.5914 26.8914 66.6285 27.7274C62.8705 28.7878 59.1931 30.0273 55.6336 31.6367C52.0256 33.2634 48.5653 35.1957 45.2911 37.4122C42.1307 39.5575 39.0117 42.2568 38.0122 46.0839C37.5465 47.8666 37.6325 49.7574 38.4116 51.4413C39.1043 52.9385 40.2452 54.1979 41.5742 55.1693C44.7452 57.487 48.7419 57.9629 52.5722 58.0102C56.8742 58.0634 61.1763 57.9192 65.4796 57.9893C74.2498 58.1323 83.0019 58.6626 91.7362 59.5801C93.9247 59.8102 96.1105 60.0645 98.2936 60.3431C100.257 60.5937 102.227 60.8427 104.158 61.2878C107.591 62.0792 110.931 63.6009 113.064 66.4918C114.011 67.7449 114.598 69.2298 114.762 70.7882C114.911 72.4144 114.51 74.0436 113.77 75.4902C112.132 78.6922 109.063 80.7288 105.804 82.0668C104.058 82.7835 102.248 83.3264 100.441 83.8655C100.177 83.944 100.065 83.5356 100.327 83.4573Z" fill="#F2F2F2"/>
<path d="M17.8851 13.1941C19.7682 13.1941 21.2947 11.6778 21.2947 9.8074C21.2947 7.93695 19.7682 6.42065 17.8851 6.42065C16.0021 6.42065 14.4755 7.93695 14.4755 9.8074C14.4755 11.6778 16.0021 13.1941 17.8851 13.1941Z" fill="#F2F2F2"/>
<path d="M41.5392 19.6149C43.4223 19.6149 44.9488 18.0986 44.9488 16.2282C44.9488 14.3577 43.4223 12.8414 41.5392 12.8414C39.6561 12.8414 38.1296 14.3577 38.1296 16.2282C38.1296 18.0986 39.6561 19.6149 41.5392 19.6149Z" fill="#F2F2F2"/>
<path d="M61.5706 6.77349C63.4536 6.77349 64.9802 5.25719 64.9802 3.38675C64.9802 1.5163 63.4536 0 61.5706 0C59.6875 0 58.161 1.5163 58.161 3.38675C58.161 5.25719 59.6875 6.77349 61.5706 6.77349Z" fill="#F2F2F2"/>
<path d="M74.0724 21.1672C75.9555 21.1672 77.482 19.6509 77.482 17.7804C77.482 15.91 75.9555 14.3937 74.0724 14.3937C72.1893 14.3937 70.6628 15.91 70.6628 17.7804C70.6628 19.6509 72.1893 21.1672 74.0724 21.1672Z" fill="#F2F2F2"/>
<path d="M57.1665 37.8187C59.0496 37.8187 60.5761 36.3024 60.5761 34.4319C60.5761 32.5615 59.0496 31.0452 57.1665 31.0452C55.2834 31.0452 53.7569 32.5615 53.7569 34.4319C53.7569 36.3024 55.2834 37.8187 57.1665 37.8187Z" fill="#F2F2F2"/>
<path d="M35.7145 45.8622C37.5975 45.8622 39.1241 44.3459 39.1241 42.4755C39.1241 40.605 37.5975 39.0887 35.7145 39.0887C33.8314 39.0887 32.3049 40.605 32.3049 42.4755C32.3049 44.3459 33.8314 45.8622 35.7145 45.8622Z" fill="#F2F2F2"/>
<path d="M58.4451 58.4213C60.3282 58.4213 61.8547 56.905 61.8547 55.0346C61.8547 53.1641 60.3282 51.6478 58.4451 51.6478C56.562 51.6478 55.0355 53.1641 55.0355 55.0346C55.0355 56.905 56.562 58.4213 58.4451 58.4213Z" fill="#F2F2F2"/>
<path d="M82.8805 65.4771C84.7636 65.4771 86.2901 63.9608 86.2901 62.0904C86.2901 60.2199 84.7636 58.7036 82.8805 58.7036C80.9975 58.7036 79.4709 60.2199 79.4709 62.0904C79.4709 63.9608 80.9975 65.4771 82.8805 65.4771Z" fill="#F2F2F2"/>
<path d="M111.436 63.9249C113.319 63.9249 114.845 62.4086 114.845 60.5381C114.845 58.6677 113.319 57.1514 111.436 57.1514C109.553 57.1514 108.026 58.6677 108.026 60.5381C108.026 62.4086 109.553 63.9249 111.436 63.9249Z" fill="#F2F2F2"/>
<path d="M60.5864 9.59631C50.373 9.66797 42.0103 17.9122 41.8653 28.0564C41.8639 28.15 41.8633 28.8086 41.8634 29.6699C41.8634 30.9328 42.3685 32.144 43.2675 33.037C44.1665 33.9301 45.3858 34.4318 46.6572 34.432C47.2875 34.4318 47.9116 34.3083 48.4938 34.0685C49.076 33.8288 49.6049 33.4774 50.0503 33.0344C50.4957 32.5915 50.8489 32.0658 51.0897 31.4872C51.3305 30.9087 51.4541 30.2887 51.4536 29.6626C51.4531 29.0767 51.4528 28.6712 51.4528 28.6463C51.4525 27.0785 51.863 25.5376 52.6441 24.1753C53.4251 22.8129 54.5497 21.676 55.9073 20.8763C57.2649 20.0766 58.8087 19.6417 60.3868 19.6144C61.9649 19.5871 63.523 19.9683 64.9078 20.7206C66.2926 21.4728 67.4564 22.5702 68.2847 23.9047C69.113 25.2392 69.5773 26.765 69.632 28.3318C69.6866 29.8986 69.3297 31.4526 68.5963 32.8409C67.8629 34.2291 66.7783 35.4038 65.4492 36.2494L65.4509 36.2514C65.4509 36.2514 58.6277 40.6146 56.5475 46.6001L56.5492 46.6006C56.1834 47.8267 55.9981 49.099 55.9989 50.3779C55.9989 50.9036 56.0301 55.5034 56.0902 59.2367C56.1113 60.5249 56.6413 61.7532 57.5659 62.6567C58.4906 63.5601 59.7357 64.0663 61.0327 64.066C61.6844 64.066 62.3297 63.9379 62.9314 63.6893C63.5332 63.4406 64.0794 63.0762 64.5388 62.617C64.9982 62.1579 65.3617 61.613 65.6083 61.0138C65.8549 60.4146 65.9798 59.7728 65.9758 59.1255C65.9549 55.7064 65.9436 51.7252 65.9436 51.4363C65.9436 47.761 69.513 44.0991 72.4451 41.711C75.8214 38.9611 78.251 35.2137 79.2269 30.9865C79.4428 30.1161 79.5619 29.2249 79.582 28.3288C79.582 25.8573 79.0896 23.4103 78.1333 21.1287C77.177 18.8471 75.7756 16.7761 74.0099 15.0348C72.2442 13.2936 70.1491 11.9166 67.8453 10.9832C65.5414 10.0498 63.0744 9.57846 60.5864 9.59631Z" fill="#707A81"/>
<path d="M119.831 84H0.169155C0.124377 83.9999 0.0814784 83.9821 0.0498612 83.9506C0.0182441 83.9191 0.000488281 83.8764 0.000488281 83.832C0.000488281 83.7875 0.0182441 83.7448 0.0498612 83.7133C0.0814784 83.6818 0.124377 83.6641 0.169155 83.6639H119.831C119.876 83.6639 119.919 83.6816 119.95 83.7132C119.982 83.7447 120 83.7874 120 83.832C120 83.8765 119.982 83.9193 119.95 83.9508C119.919 83.9823 119.876 84 119.831 84Z" fill="#3F3D56"/>
<path d="M89.2815 38.5236C91.6353 38.5236 93.5435 36.6283 93.5435 34.2902C93.5435 31.9521 91.6353 30.0568 89.2815 30.0568C86.9276 30.0568 85.0195 31.9521 85.0195 34.2902C85.0195 36.6283 86.9276 38.5236 89.2815 38.5236Z" fill="#2F2E41"/>
<path d="M81.4058 82.1468H79.6642L78.8355 75.4738H81.4062L81.4058 82.1468Z" fill="#A0616A"/>
<path d="M78.42 81.6525H81.779V83.7532H76.3051C76.3051 83.4773 76.3598 83.2042 76.4661 82.9493C76.5724 82.6944 76.7282 82.4628 76.9245 82.2678C77.1209 82.0727 77.3541 81.9179 77.6107 81.8124C77.8673 81.7068 78.1423 81.6525 78.42 81.6525Z" fill="#2F2E41"/>
<path d="M94.9021 82.1468H93.1605L92.3318 75.4738H94.9025L94.9021 82.1468Z" fill="#A0616A"/>
<path d="M91.9163 81.6525H95.2753V83.7532H89.8014C89.8014 83.4773 89.8561 83.2042 89.9624 82.9493C90.0687 82.6944 90.2245 82.4628 90.4209 82.2678C90.6173 82.0727 90.8504 81.9179 91.107 81.8124C91.3636 81.7068 91.6386 81.6525 91.9163 81.6525Z" fill="#2F2E41"/>
<path d="M88.6338 38.5484C90.5609 38.5484 92.1231 36.9967 92.1231 35.0825C92.1231 33.1683 90.5609 31.6166 88.6338 31.6166C86.7067 31.6166 85.1445 33.1683 85.1445 35.0825C85.1445 36.9967 86.7067 38.5484 88.6338 38.5484Z" fill="#A0616A"/>
<path d="M90.7135 49.7296L92.2748 46.1664C92.654 45.3306 92.7627 44.3984 92.5858 43.4986C92.409 42.5987 91.9553 41.7756 91.2875 41.1428C91.1503 41.0081 91.0046 40.8822 90.8513 40.766C90.0809 40.1674 89.1316 39.8411 88.1535 39.8389C87.4959 39.8414 86.8465 39.9848 86.2498 40.2594C86.1986 40.282 86.1489 40.306 86.0977 40.3299C85.9997 40.3765 85.9032 40.4273 85.8094 40.4795C85.1978 40.8283 84.6773 41.3151 84.2898 41.9004C83.9024 42.4857 83.6589 43.1533 83.5789 43.8493L82.8899 49.5842C82.7166 50.0344 76.5339 66.2908 78.6961 78.7018C78.7191 78.8343 78.7842 78.9561 78.8818 79.0493C78.9795 79.1424 79.1046 79.2022 79.2388 79.2197L81.4309 79.516C81.591 79.5378 81.7534 79.4985 81.8854 79.406C82.0175 79.3136 82.1094 79.1749 82.1426 79.0179L85.8208 61.6029C85.8437 61.4947 85.9025 61.3973 85.9877 61.3262C86.0729 61.2551 86.1797 61.2144 86.291 61.2106C86.4022 61.2069 86.5115 61.2403 86.6014 61.3056C86.6913 61.3708 86.7566 61.4641 86.7868 61.5705L91.9836 79.8843C92.0206 80.0174 92.1006 80.1347 92.2112 80.2183C92.3218 80.3019 92.4569 80.3472 92.5959 80.3472C92.6373 80.3469 92.6787 80.3431 92.7195 80.3359L95.3974 79.8236C95.5531 79.7947 95.6923 79.7091 95.7877 79.5835C95.8831 79.458 95.9279 79.3015 95.9132 79.1449C95.5196 74.7859 93.4284 52.9512 90.7135 49.7296Z" fill="#2F2E41"/>
<path d="M75.0735 37.9669C75.0493 38.1729 75.0708 38.3817 75.1367 38.5786C75.2025 38.7755 75.311 38.9557 75.4544 39.1064C75.5979 39.2571 75.773 39.3748 75.9672 39.451C76.1614 39.5273 76.3701 39.5603 76.5786 39.5478L78.529 44.2035L80.0044 42.0312L77.926 37.9431C77.8816 37.5966 77.7109 37.2783 77.446 37.0486C77.1812 36.8188 76.8407 36.6935 76.4891 36.6965C76.1375 36.6994 75.7992 36.8303 75.5383 37.0645C75.2774 37.2986 75.112 37.6197 75.0735 37.9669Z" fill="#A0616A"/>
<path d="M88.4403 54.4174C88.6477 54.3928 88.8471 54.3233 89.0245 54.2139C89.2019 54.1044 89.353 53.9577 89.4672 53.7839C89.5813 53.6102 89.6557 53.4137 89.6851 53.2083C89.7145 53.0029 89.6983 52.7937 89.6374 52.5952L93.7411 49.6264L91.2705 48.7074L87.7524 51.6675C87.4235 51.7911 87.1517 52.0303 86.9885 52.3396C86.8252 52.649 86.7819 53.007 86.8667 53.346C86.9515 53.685 87.1585 53.9812 87.4486 54.1787C87.7386 54.3762 88.0915 54.4611 88.4403 54.4174Z" fill="#A0616A"/>
<path d="M81.7506 47.3073C81.5933 47.3072 81.4364 47.2918 81.2821 47.2614C80.9088 47.1909 80.5587 47.0302 80.2627 46.7936C79.9667 46.5569 79.7339 46.2516 79.5847 45.9045L76.8522 42.5949C76.7944 42.5249 76.7523 42.4435 76.7288 42.3561C76.7053 42.2686 76.7009 42.1772 76.7158 42.088C76.7308 41.9987 76.7648 41.9136 76.8155 41.8385C76.8662 41.7633 76.9325 41.6998 77.01 41.6521L78.9541 40.4568C79.0259 40.4127 79.1057 40.3831 79.1891 40.3698C79.2724 40.3564 79.3576 40.3596 79.4397 40.3792C79.5218 40.3987 79.5992 40.4343 79.6674 40.4837C79.7356 40.5331 79.7933 40.5954 79.8371 40.6671L81.763 43.8188L85.4512 41.1112C85.7449 40.9583 86.0842 40.9154 86.407 40.9904C86.7299 41.0654 87.0148 41.2533 87.2098 41.5197C87.4047 41.7861 87.4966 42.1133 87.4688 42.4415C87.4409 42.7697 87.2951 43.077 87.058 43.3072L83.3768 46.6427C82.9442 47.0686 82.3597 47.3075 81.7506 47.3073Z" fill="#2F2E41"/>
<path d="M91.7166 52.2847C91.7116 52.2847 91.7066 52.2847 91.7016 52.2846C91.6119 52.2824 91.5238 52.2616 91.4427 52.2234C91.3617 52.1852 91.2897 52.1306 91.2312 52.063L89.5028 50.0601C89.444 49.9919 89.4003 49.9121 89.3748 49.8259C89.3493 49.7397 89.3425 49.6491 89.3549 49.5601C89.3672 49.4711 89.3985 49.3857 89.4465 49.3096C89.4946 49.2334 89.5583 49.1683 89.6336 49.1185L92.8701 46.9753L89.938 43.4739C89.7675 43.1915 89.7049 42.8575 89.7618 42.533C89.8186 42.2085 89.9911 41.9152 90.2477 41.7066C90.5043 41.4981 90.8279 41.3881 91.1594 41.397C91.4908 41.4058 91.808 41.5328 92.053 41.7548L95.6165 45.2139C95.897 45.4683 96.1111 45.7866 96.2405 46.1414C96.3698 46.4962 96.4106 46.8768 96.3592 47.2507C96.3079 47.6246 96.166 47.9805 95.9457 48.2879C95.7254 48.5953 95.4332 48.845 95.0944 49.0155L92.1819 52.0853C92.1221 52.1483 92.0499 52.1984 91.9699 52.2327C91.8899 52.267 91.8037 52.2847 91.7166 52.2847Z" fill="#2F2E41"/>
<path d="M87.7466 44.9047C87.7188 44.9047 87.6911 44.9029 87.6636 44.8994C87.5433 44.8849 87.4296 44.8364 87.3362 44.7596C87.2428 44.6828 87.1734 44.5811 87.1365 44.4664L85.8377 40.511C85.8051 40.411 85.8101 40.3027 85.8518 40.2061C85.8934 40.1095 85.9688 40.0311 86.0641 39.9854L86.1063 39.9657C86.1445 39.9476 86.1823 39.9298 86.221 39.9127C86.8266 39.6337 87.4859 39.4882 88.1535 39.4861C89.0202 39.4877 89.8675 39.7406 90.5915 40.2138C90.6886 40.2779 90.7564 40.3774 90.7804 40.4908C90.8043 40.6041 90.7825 40.7223 90.7196 40.8198L88.2832 44.6112C88.226 44.7012 88.1468 44.7754 88.053 44.8267C87.9591 44.878 87.8537 44.9049 87.7466 44.9047Z" fill="#E6E6E6"/>
<path d="M92.6417 32.4003C93.4119 32.4003 94.0363 31.7801 94.0363 31.015C94.0363 30.25 93.4119 29.6298 92.6417 29.6298C91.8714 29.6298 91.2471 30.25 91.2471 31.015C91.2471 31.7801 91.8714 32.4003 92.6417 32.4003Z" fill="#2F2E41"/>
<path d="M87.8608 29.4923C86.8812 29.4923 85.9417 29.8789 85.249 30.5669C84.5562 31.255 84.1671 32.1882 84.1671 33.1613V34.7135H86.0891L87.0084 33.1613L87.2842 34.7135H93.1173L91.5545 33.1613C91.5545 32.1882 91.1654 31.255 90.4727 30.5669C89.78 29.8789 88.8404 29.4923 87.8608 29.4923Z" fill="#2F2E41"/>
<path d="M93.3585 30.0661C93.5127 29.5871 93.832 29.1774 94.2602 28.9091C94.6884 28.6408 95.1982 28.5311 95.6998 28.5992C96.5886 28.7467 97.2913 29.4564 97.71 30.2489C98.1287 31.0415 98.322 31.9285 98.6035 32.7788C98.885 33.6291 99.2842 34.484 99.9948 35.0344C100.705 35.5848 101.796 35.7341 102.494 35.1679C102.414 35.758 102.149 36.3082 101.738 36.7408C101.326 37.1734 100.787 37.4665 100.199 37.5785C99.6101 37.6905 99.0009 37.6159 98.4573 37.3652C97.9136 37.1144 97.4631 36.7003 97.1694 36.1813C96.8012 35.5305 96.7061 34.7678 96.5969 34.0291C96.4877 33.2905 96.3458 32.5263 95.9062 31.9208C95.4665 31.3154 94.6435 30.9199 93.9451 31.1957L93.3585 30.0661Z" fill="#2F2E41"/>
<path d="M48.0108 32.1795C46.7394 32.1794 45.5201 31.6776 44.6211 30.7846C43.7221 29.8916 43.217 28.6804 43.2169 27.4175C43.2169 26.5562 43.2175 25.8976 43.2188 25.804C43.2592 22.8537 44.0072 19.9556 45.4008 17.35C43.1112 20.4634 41.8522 24.2066 41.7981 28.0618C41.7968 28.1555 41.7962 28.814 41.7963 29.6753C41.7963 30.9382 42.3014 32.1494 43.2004 33.0424C44.0995 33.9355 45.3188 34.4372 46.5902 34.4374C47.6349 34.437 48.651 34.0979 49.4841 33.4716C50.3171 32.8452 50.9216 31.966 51.2056 30.9673C50.3278 31.7492 49.1899 32.181 48.0108 32.1795Z" fill="#3F3D56"/>
<path d="M60.9114 19.6303C62.3812 19.7 63.8121 20.123 65.081 20.863C66.35 21.603 67.4193 22.6379 68.1969 23.8788C68.9746 25.1197 69.4374 26.5295 69.5457 27.9872C69.654 29.4449 69.4045 30.9069 68.8187 32.2477C69.6661 31.2592 70.2889 30.1007 70.6447 28.8514C71.0006 27.6021 71.081 26.2912 70.8806 25.0082C70.6802 23.7252 70.2036 22.5002 69.4833 21.4167C68.763 20.3332 67.816 19.4168 66.7069 18.7298C65.5977 18.0428 64.3525 17.6015 63.056 17.4358C61.7596 17.2702 60.4424 17.3842 59.1943 17.7701C57.9462 18.1559 56.7966 18.8046 55.8238 19.6717C54.851 20.5389 54.0778 21.6043 53.5571 22.7952C54.4571 21.7435 55.5883 20.9112 56.8634 20.3625C58.1384 19.8137 59.5234 19.5632 60.9114 19.6303Z" fill="#3F3D56"/>
<path d="M62.3863 61.8136C61.0893 61.8139 59.8441 61.3077 58.9195 60.4042C57.9948 59.5008 57.4648 58.2724 57.4438 56.9843C57.3836 53.2509 57.3525 48.6512 57.3525 48.1255C57.3516 46.8466 57.537 45.5743 57.9028 44.3481L57.9011 44.3477C58.1171 43.7322 58.3779 43.1332 58.6816 42.5554C57.7494 43.7894 57.0075 45.1544 56.4804 46.6055L56.4821 46.606C56.1163 47.8321 55.931 49.1044 55.9318 50.3833C55.9318 50.909 55.963 55.5088 56.0231 59.2421C56.0442 60.5303 56.5742 61.7586 57.4988 62.662C58.4234 63.5655 59.6686 64.0717 60.9656 64.0714C62.035 64.0712 63.0755 63.7266 63.9311 63.0893C64.7867 62.452 65.4111 61.5564 65.7109 60.5367C64.8021 61.3598 63.6161 61.8153 62.3863 61.8136Z" fill="#3F3D56"/>
<path d="M17.9772 82.2111L19.7188 82.211L20.5475 75.538L17.9768 75.5381L17.9772 82.2111Z" fill="#FFB8B8"/>
<path d="M23.0779 83.8174L17.604 83.8176L17.6039 81.7169L20.9629 81.7167C21.5238 81.7167 22.0618 81.938 22.4584 82.332C22.8551 82.7259 23.0779 83.2602 23.0779 83.8174Z" fill="#2F2E41"/>
<path d="M11.7263 82.2111L13.4679 82.211L14.2966 75.538L11.7259 75.5381L11.7263 82.2111Z" fill="#FFB8B8"/>
<path d="M16.827 83.8174L11.3531 83.8176L11.353 81.7169L14.712 81.7167C15.2729 81.7167 15.8109 81.938 16.2075 82.332C16.6041 82.7259 16.827 83.2602 16.827 83.8174Z" fill="#2F2E41"/>
<path d="M13.2483 80.1588L11.5471 80.07C11.4593 80.0654 11.3734 80.0435 11.2942 80.0057C11.2151 79.9679 11.1442 79.9149 11.0858 79.8497C11.0275 79.7845 10.9827 79.7085 10.9541 79.6259C10.9255 79.5434 10.9137 79.4561 10.9193 79.369L12.9527 57.0072L22.3164 59.517L23.2186 59.2725L20.3974 79.0688C20.3733 79.2177 20.2989 79.354 20.1863 79.4552C20.0738 79.5564 19.9298 79.6164 19.7782 79.6254L17.9443 79.7103C17.8526 79.7153 17.7609 79.7014 17.6748 79.6695C17.5888 79.6375 17.5104 79.5882 17.4446 79.5246C17.3787 79.461 17.3269 79.3845 17.2923 79.3C17.2577 79.2155 17.2412 79.1247 17.2437 79.0335L17.576 67.1522C17.5776 67.0973 17.5583 67.0437 17.5221 67.0022C17.4859 66.9606 17.4354 66.934 17.3804 66.9276C17.3255 66.9213 17.2701 66.9356 17.2252 66.9677C17.1803 66.9999 17.1492 67.0476 17.138 67.1014L13.9334 79.6341C13.9032 79.7828 13.8219 79.9165 13.7036 80.0124C13.5852 80.1082 13.437 80.1603 13.2843 80.1598C13.2724 80.1598 13.2604 80.1596 13.2483 80.1588Z" fill="#2F2E41"/>
<path d="M18.2899 38.7105C20.217 38.7105 21.7792 37.1588 21.7792 35.2446C21.7792 33.3304 20.217 31.7787 18.2899 31.7787C16.3628 31.7787 14.8006 33.3304 14.8006 35.2446C14.8006 37.1588 16.3628 38.7105 18.2899 38.7105Z" fill="#FFB8B8"/>
<path d="M12.4805 45.4273L12.8641 53.6496L13.0028 56.6411C13.0084 56.7713 13.0529 56.8969 13.1307 57.0019C13.2085 57.1068 13.316 57.1864 13.4396 57.2303L22.4375 60.4679C22.5102 60.4948 22.5872 60.5082 22.6648 60.5075C22.7534 60.5079 22.8412 60.4906 22.9229 60.4566C23.0047 60.4225 23.0787 60.3725 23.1405 60.3094C23.2023 60.2464 23.2508 60.1716 23.2829 60.0895C23.3149 60.0075 23.3301 59.9198 23.3273 59.8318L22.9584 45.0477C22.9342 43.8347 22.4847 42.6681 21.6874 41.7491C20.8901 40.8301 19.7949 40.2161 18.5908 40.0131C18.5037 39.9999 18.4152 39.9867 18.3266 39.975C17.58 39.8829 16.822 39.9545 16.1062 40.1847C15.3904 40.4149 14.734 40.798 14.1833 41.3073C13.613 41.8283 13.1649 42.4673 12.8707 43.1792C12.5765 43.8911 12.4433 44.6586 12.4805 45.4273Z" fill="#CCCCCC"/>
<path d="M26.7358 58.8272C26.523 58.7616 26.3285 58.6475 26.168 58.494C26.0075 58.3405 25.8853 58.1519 25.8112 57.9432C25.7371 57.7344 25.7131 57.5114 25.7412 57.2918C25.7693 57.0722 25.8487 56.8622 25.9731 56.6785L22.9218 52.6483L25.5549 52.4865L28.0487 56.3384C28.3157 56.5435 28.5015 56.8353 28.5735 57.1628C28.6455 57.4903 28.5991 57.8326 28.4425 58.1295C28.2858 58.4264 28.029 58.659 27.7169 58.7866C27.4048 58.9142 27.0575 58.9286 26.7358 58.8272Z" fill="#FFB8B8"/>
<path d="M24.5904 55.9491C24.5096 55.9165 24.4361 55.8684 24.3741 55.8073C24.3121 55.7463 24.2629 55.6737 24.2294 55.5937L19.6324 44.7146C19.5422 44.5016 19.4951 44.273 19.4939 44.042C19.4927 43.8109 19.5373 43.5818 19.6252 43.3679C19.7132 43.154 19.8427 42.9593 20.0064 42.7951C20.1701 42.6309 20.3648 42.5004 20.5793 42.411C20.7938 42.3215 21.0239 42.275 21.2566 42.2739C21.4892 42.2729 21.7198 42.3174 21.9351 42.4049C22.1504 42.4924 22.3462 42.6212 22.5114 42.784C22.6766 42.9467 22.8078 43.1402 22.8977 43.3533L27.4947 54.2326C27.5627 54.3939 27.5634 54.5753 27.4968 54.7372C27.4302 54.8991 27.3017 55.0281 27.1395 55.0959L25.0986 55.9467C25.0183 55.9805 24.932 55.9981 24.8448 55.9985C24.7575 55.9989 24.6711 55.9821 24.5904 55.9491Z" fill="#CCCCCC"/>
<path d="M17.1681 55.5654L21.5834 47.1679C21.6685 47.0064 21.8147 46.885 21.9898 46.8304C22.1649 46.7758 22.3547 46.7925 22.5175 46.8767L28.9263 50.2013C29.0889 50.2859 29.2111 50.4311 29.266 50.605C29.321 50.779 29.3042 50.9675 29.2194 51.1292L24.8041 59.5267C24.719 59.6882 24.5728 59.8096 24.3977 59.8642C24.2226 59.9188 24.0328 59.9021 23.8701 59.8179L17.4612 56.4932C17.2986 56.4087 17.1765 56.2635 17.1215 56.0895C17.0665 55.9156 17.0833 55.7271 17.1681 55.5654Z" fill="#3F3D56"/>
<path d="M20.1291 51.7289C20.0507 51.5217 19.9245 51.3357 19.7608 51.1856C19.597 51.0354 19.4002 50.9254 19.1861 50.8643C18.9719 50.8031 18.7463 50.7926 18.5273 50.8334C18.3083 50.8742 18.102 50.9653 17.9247 51.0995L13.6942 48.3119L13.687 50.9323L17.7055 53.1777C17.9273 53.4304 18.2316 53.5973 18.565 53.6494C18.8983 53.7014 19.2395 53.6352 19.5287 53.4624C19.8178 53.2895 20.0365 53.0211 20.1463 52.7041C20.2561 52.3871 20.25 52.0419 20.1291 51.7289Z" fill="#FFB8B8"/>
<path d="M14.7803 52.3181L11.3229 49.5977C10.9489 49.473 10.6109 49.26 10.338 48.9769C10.0651 48.6939 9.86547 48.3493 9.75617 47.9727C9.64687 47.5961 9.63119 47.1988 9.7105 46.8149C9.7898 46.431 9.96171 46.072 10.2115 45.7686L13.3507 41.682C13.5689 41.4172 13.8757 41.2392 14.2151 41.1806C14.5544 41.122 14.9037 41.1867 15.199 41.3628C15.4943 41.5389 15.716 41.8147 15.8235 42.1398C15.9309 42.4649 15.917 42.8175 15.7843 43.1332L13.3004 47.1691L16.9507 48.8889C17.0355 48.9288 17.1109 48.9863 17.1718 49.0573C17.2327 49.1284 17.2777 49.2115 17.3038 49.3011C17.33 49.3907 17.3367 49.4849 17.3235 49.5773C17.3104 49.6696 17.2776 49.7582 17.2274 49.8371L15.7539 52.1534C15.7041 52.2315 15.6383 52.2984 15.5608 52.3498C15.4834 52.4011 15.3959 52.4357 15.3041 52.4513C15.3004 52.4519 15.2967 52.4525 15.2931 52.453C15.2029 52.4665 15.1108 52.4615 15.0226 52.4383C14.9344 52.4151 14.852 52.3742 14.7803 52.3181Z" fill="#CCCCCC"/>
<path d="M15.6533 37.5654C15.6383 37.5219 15.6336 37.4755 15.6394 37.4299C15.6453 37.3843 15.6615 37.3406 15.687 37.3022C15.7125 37.2638 15.7464 37.2317 15.7863 37.2084C15.8262 37.185 15.8709 37.1711 15.917 37.1676C16.0115 37.1727 16.104 37.1967 16.1889 37.2383C16.2738 37.2799 16.3493 37.3382 16.4109 37.4096C16.5372 37.5542 16.6842 37.6796 16.8472 37.7817C17.016 37.8662 17.2449 37.8542 17.3411 37.693C17.4315 37.5417 17.3696 37.3391 17.3149 37.1634C17.1757 36.7162 17.0978 36.2525 17.0833 35.7847C17.0676 35.2625 17.1417 34.7176 17.4328 34.3103C17.8084 33.7847 18.48 33.5851 19.1156 33.5996C19.7512 33.6141 20.3765 33.809 21.0061 33.9322C21.2234 33.9747 21.4789 33.9964 21.6243 33.8291C21.7789 33.6512 21.7221 33.3632 21.6564 33.123C21.4857 32.4997 21.3047 31.8552 20.9083 31.3517C20.4797 30.8286 19.8675 30.4862 19.1949 30.3935C18.5492 30.3141 17.8937 30.388 17.2824 30.6092C16.2863 30.921 15.4099 31.5275 14.7702 32.3475C14.1108 33.2196 13.8259 34.3155 13.9778 35.3956C14.1261 36.3364 14.628 37.1863 15.3822 37.7741L15.6533 37.5654Z" fill="#2F2E41"/>
<path d="M59.8466 82.2387C58.9183 81.8371 58.0966 81.2267 57.4465 80.4556C56.7963 79.6846 56.3354 78.7739 56.1003 77.7957C55.8651 76.8174 55.862 75.7982 56.0913 74.8185C56.3206 73.8389 56.776 72.9255 57.4215 72.1506C56.6731 72.6934 56.0494 73.3881 55.592 74.1886C55.1345 74.9891 54.8537 75.8771 54.7681 76.7936C54.6826 77.7102 54.7943 78.6343 55.0957 79.5047C55.3972 80.3751 55.8817 81.1718 56.5169 81.842C57.152 82.5123 57.9235 83.0406 58.78 83.392C59.6365 83.7435 60.5584 83.91 61.4846 83.8804C62.4108 83.8509 63.3201 83.626 64.1521 83.2207C64.9841 82.8154 65.7198 82.239 66.3104 81.5297C65.3893 82.1984 64.3078 82.6158 63.1737 82.7402C62.0396 82.8646 60.8925 82.6917 59.8466 82.2387Z" fill="#3F3D56"/>
</g>
<defs>
<clipPath id="clip0_482_324">
<rect width="120" height="84" fill="white"/>
</clipPath>
</defs>
</svg>
