<svg width="325" height="159" viewBox="0 0 325 159" fill="none" xmlns="http://www.w3.org/2000/svg">
<g clip-path="url(#clip0_482_228)">
<path d="M0 143.482C0 143.804 0.36611 144.062 0.824604 144.062H324.175C324.63 144.062 325 143.804 325 143.482C325 143.16 324.634 142.902 324.175 142.902H0.824604C0.369532 142.902 0 143.16 0 143.482Z" fill="#2F2E43"/>
<path d="M270.029 144.302H55.6556V5.93626C55.6556 2.66463 58.3108 0 61.5784 0H264.106C267.37 0 270.029 2.6612 270.029 5.93626V144.302Z" fill="#2F2E41"/>
<path d="M287.872 159H37.2783C36.4126 159 35.7043 158.462 35.4682 157.625C35.2356 156.791 35.5606 155.958 36.2997 155.509L55.8335 143.564H270.101L270.162 143.602L288.885 155.526C289.607 155.986 289.922 156.815 289.682 157.642C289.443 158.465 288.735 159 287.879 159H287.872Z" fill="#DFDFDF"/>
<path d="M264.161 8.82043H61.2773V135.238H264.161V8.82043Z" fill="white"/>
<path d="M271.982 151.407H54.4341L65.1882 142.662H261.718L271.982 151.407Z" fill="#2F2E41"/>
<path d="M214.298 157.285H111.144L115.055 151.407H210.387L214.298 157.285Z" fill="#2F2E41"/>
<path d="M223.526 58.8105H212.779C211.844 58.8105 211.085 58.0492 211.085 57.1129C211.085 56.1767 211.844 55.4154 212.779 55.4154H223.526C224.46 55.4154 225.219 56.1767 225.219 57.1129C225.219 58.0492 224.46 58.8105 223.526 58.8105Z" fill="#DFDFDF"/>
<path d="M235.885 58.8105H230.869C229.934 58.8105 229.175 58.0492 229.175 57.1129C229.175 56.1767 229.934 55.4154 230.869 55.4154H235.885C236.819 55.4154 237.578 56.1767 237.578 57.1129C237.578 58.0492 236.819 58.8105 235.885 58.8105Z" fill="#DFDFDF"/>
<path d="M115.924 60.1069H83.2132C81.5434 60.1069 80.1851 58.7454 80.1851 57.0719C80.1851 55.3983 81.5434 54.0369 83.2132 54.0369H115.924C117.593 54.0369 118.952 55.3983 118.952 57.0719C118.952 58.7454 117.593 60.1069 115.924 60.1069Z" fill="#707A81"/>
<path d="M98.1894 68.2036H82.4261C81.4099 68.2036 80.5785 67.3737 80.5785 66.3517C80.5785 65.3298 81.4065 64.4999 82.4261 64.4999H98.1894C99.2056 64.4999 100.037 65.3298 100.037 66.3517C100.037 67.3737 99.2091 68.2036 98.1894 68.2036Z" fill="#DFDFDF"/>
<path d="M185.091 75.5116H82.0293C81.0131 75.5116 80.1816 74.6817 80.1816 73.6597C80.1816 72.6378 81.0097 71.8079 82.0293 71.8079H185.091C186.107 71.8079 186.939 72.6378 186.939 73.6597C186.939 74.6817 186.111 75.5116 185.091 75.5116Z" fill="#DFDFDF"/>
<path d="M176.226 80.45H82.0293C81.0131 80.45 80.1816 79.62 80.1816 78.5981C80.1816 77.5761 81.0097 76.7462 82.0293 76.7462H176.222C177.239 76.7462 178.07 77.5761 178.07 78.5981C178.07 79.62 177.242 80.45 176.222 80.45H176.226Z" fill="#DFDFDF"/>
<path d="M286.983 52.1883L281.946 53.8482V46.5779H286.517L286.983 52.1883Z" fill="#F2A7AA"/>
<path d="M282.569 48.591C285.341 48.591 287.588 46.3386 287.588 43.5601C287.588 40.7816 285.341 38.5292 282.569 38.5292C279.797 38.5292 277.549 40.7816 277.549 43.5601C277.549 46.3386 279.797 48.591 282.569 48.591Z" fill="#F2A7AA"/>
<path d="M283.948 43.0628C283.106 43.0387 282.555 42.1848 282.23 41.4098C281.905 40.6313 281.566 39.7397 280.79 39.4173C280.153 39.1533 279.027 40.9262 278.524 40.4564C278.001 39.966 278.511 37.4351 279.069 36.9825C279.626 36.5298 280.386 36.4406 281.104 36.4063C282.853 36.324 284.615 36.468 286.329 36.8247C287.39 37.0476 288.481 37.3803 289.248 38.1484C290.216 39.1224 290.466 40.5936 290.534 41.9688C290.606 43.3748 290.524 44.8495 289.843 46.0772C289.162 47.3083 287.732 48.2171 286.363 47.9016C286.226 47.154 286.363 46.3893 286.418 45.6314C286.469 44.8735 286.418 44.0573 285.956 43.4537C285.494 42.8501 284.509 42.6135 283.972 43.1485" fill="#36344E"/>
<path d="M290.124 44.8049C290.627 44.4345 291.225 44.1293 291.845 44.2048C292.512 44.2871 293.077 44.8392 293.248 45.4908C293.419 46.1424 293.227 46.8626 292.813 47.3941C292.399 47.9257 291.787 48.2789 291.136 48.4572C290.76 48.5601 290.35 48.6013 289.99 48.4469C289.463 48.2206 289.179 47.5416 289.385 47.0066" fill="#36344E"/>
<path d="M285.32 133.06H280.601V139.768H285.32V133.06Z" fill="#F2A7AA"/>
<path d="M276.006 143.832C275.51 143.832 275.069 143.818 274.737 143.787C273.485 143.671 272.287 142.745 271.685 142.203C271.414 141.959 271.329 141.572 271.469 141.236C271.568 140.996 271.77 140.817 272.02 140.745L275.332 139.795L280.694 136.167L280.752 136.273C280.776 136.315 281.299 137.265 281.477 137.906C281.546 138.149 281.525 138.355 281.426 138.513C281.354 138.623 281.258 138.684 281.176 138.722C281.272 138.825 281.577 139.031 282.514 139.182C283.879 139.401 284.17 137.978 284.18 137.92L284.191 137.872L284.232 137.844C284.882 137.422 285.282 137.234 285.422 137.275C285.508 137.302 285.652 137.343 286.042 141.215C286.079 141.335 286.353 142.227 286.168 143.077C285.967 144.003 281.929 143.684 281.122 143.612C281.098 143.612 278.076 143.832 276.003 143.832H276.006Z" fill="#36344E"/>
<path d="M298.753 127.785L294.75 130.287L298.291 135.979L302.295 133.477L298.753 127.785Z" fill="#F2A7AA"/>
<path d="M293.439 142.913C292.885 142.913 292.375 142.848 292.012 142.782C291.657 142.721 291.376 142.436 291.318 142.076C291.277 141.819 291.352 141.562 291.527 141.366L293.836 138.804L296.471 132.882L296.577 132.94C296.618 132.961 297.566 133.489 298.055 133.941C298.24 134.113 298.332 134.295 298.329 134.483C298.329 134.614 298.277 134.72 298.229 134.792C298.366 134.826 298.732 134.84 299.608 134.47C300.885 133.931 300.378 132.57 300.358 132.511L300.341 132.467L300.361 132.422C300.693 131.719 300.929 131.345 301.069 131.308C301.155 131.284 301.302 131.246 303.673 134.322C303.769 134.404 304.47 135.015 304.765 135.838C305.083 136.73 301.487 138.602 300.765 138.969C300.741 138.986 296.981 141.726 295.437 142.505C294.825 142.813 294.1 142.909 293.439 142.909V142.913Z" fill="#36344E"/>
<path d="M288.796 76.9485H275.585L274.388 89.2668L279.633 134.778H286.377L283.681 108.492L294.62 132.223L300.614 128.019L292.071 105.865C292.071 105.865 295.123 86.5645 292.724 81.7565C290.326 76.9485 288.796 76.9485 288.796 76.9485Z" fill="#36344E"/>
<path d="M295.366 77.6996H274.384L280.68 50.5149H289.819L295.366 77.6996Z" fill="#707A81"/>
<path d="M269.173 49.9764C268.838 48.3234 269.45 46.811 270.542 46.6018C271.633 46.3927 272.786 47.5621 273.122 49.2185C273.266 49.8769 273.242 50.5594 273.057 51.2109L274.384 58.2378L270.956 58.7796L270.012 51.7974C269.587 51.2658 269.3 50.6417 269.173 49.9764Z" fill="#F2A7AA"/>
<path d="M289.597 50.5149H281.536L276.102 61.41L274.053 53.2481L269.55 53.7282C269.55 53.7282 270.614 69.6783 275.274 69.1399C279.931 68.6015 290.794 54.2289 289.6 50.5183L289.597 50.5149Z" fill="#707A81"/>
<path d="M298.602 91.9452C298.938 93.5982 298.325 95.1105 297.234 95.3197C296.142 95.5289 294.989 94.3595 294.654 92.7031C294.51 92.0447 294.534 91.3622 294.719 90.7106L293.391 83.6838L296.82 83.142L297.764 90.1242C298.188 90.6557 298.476 91.2799 298.602 91.9452Z" fill="#F2A7AA"/>
<path d="M285.002 50.5149C285.002 50.5149 289.583 50.3194 289.819 50.5149C291.068 51.5402 298.404 88.4644 298.404 88.4644H293.757L284.998 50.5149H285.002Z" fill="#707A81"/>
</g>
<defs>
<clipPath id="clip0_482_228">
<rect width="325" height="159" fill="white"/>
</clipPath>
</defs>
</svg>
